<svg width="129" height="45" viewBox="0 0 129 45" fill="none" xmlns="http://www.w3.org/2000/svg">
<g filter="url(#filter0_d)">
<path d="M7.33333 0.5H121.667C123.218 0.5 124.5 1.79943 124.5 3.43387V33.5661C124.5 35.2006 123.218 36.5 121.667 36.5H7.33333C5.78243 36.5 4.5 35.2006 4.5 33.5661V3.43387C4.5 1.79943 5.78243 0.5 7.33333 0.5Z" stroke="white"/>
<mask id="path-2-inside-1" fill="white">
<path fill-rule="evenodd" clip-rule="evenodd" d="M50.9294 23.6553H52.9631L48.5112 10.9531H46.4519L42 23.6553H43.9653L45.1018 20.2839H49.8015L50.9294 23.6553ZM47.3833 13.2594H47.5285L49.3144 18.629H45.5888L47.3833 13.2594ZM58.3555 13.9108C57.0908 13.9108 55.9971 14.5622 55.4331 15.6537H55.2964V14.0693H53.5276V26.7627H55.3648V22.2029H55.51C55.9971 23.2152 57.0481 23.8138 58.3726 23.8138C60.7224 23.8138 62.2178 21.9036 62.2178 18.8579C62.2178 15.8122 60.7224 13.9108 58.3555 13.9108ZM57.8342 22.1149C56.2961 22.1149 55.3306 20.8649 55.3306 18.8667C55.3306 16.8597 56.2961 15.6097 57.8428 15.6097C59.398 15.6097 60.3294 16.8333 60.3294 18.8579C60.3294 20.8913 59.398 22.1149 57.8342 22.1149ZM67.8836 13.9108C66.6189 13.9108 65.5252 14.5622 64.9612 15.6537H64.8245V14.0693H63.0557V26.7627H64.8929V22.2029H65.0381C65.5252 23.2152 66.5762 23.8138 67.9007 23.8138C70.2505 23.8138 71.7459 21.9036 71.7459 18.8579C71.7459 15.8122 70.2505 13.9108 67.8836 13.9108ZM67.3624 22.1149C65.8243 22.1149 64.8587 20.8649 64.8587 18.8667C64.8587 16.8597 65.8243 15.6097 67.3709 15.6097C68.9261 15.6097 69.8575 16.8333 69.8575 18.8579C69.8575 20.8913 68.9261 22.1149 67.3624 22.1149ZM75.6349 20.2399C75.7716 22.511 77.6088 23.9634 80.3431 23.9634C83.2655 23.9634 85.0941 22.4406 85.0941 20.011C85.0941 18.1009 84.0516 17.0446 81.5223 16.4372L80.1637 16.0939C78.5572 15.7065 77.9078 15.1872 77.9078 14.2805C77.9078 13.1362 78.9161 12.3879 80.4286 12.3879C81.8641 12.3879 82.8553 13.1186 83.0348 14.2893H84.8976C84.7865 12.1503 82.9579 10.645 80.4542 10.645C77.7626 10.645 75.9681 12.1503 75.9681 14.4126C75.9681 16.2787 76.985 17.3879 79.2152 17.9248L80.8046 18.3209C82.4366 18.7171 83.1544 19.298 83.1544 20.2663C83.1544 21.3931 82.0265 22.2117 80.4884 22.2117C78.8392 22.2117 77.6942 21.4459 77.5319 20.2399H75.6349ZM86.6754 11.7454V14.1133H85.1459V15.7065H86.6754V21.1202C86.6754 22.9687 87.4872 23.7082 89.5294 23.7082C89.8883 23.7082 90.2216 23.6641 90.5121 23.6113V22.0357C90.2558 22.0621 90.1105 22.0797 89.8285 22.0797C88.9142 22.0797 88.5126 21.6395 88.5126 20.636V15.7065H90.5976V14.1133H88.5126V11.7454H86.6754ZM95.1525 22.1589C93.5546 22.1589 92.6574 20.9529 92.6574 18.8579C92.6574 16.7805 93.5546 15.5657 95.1525 15.5657C96.7419 15.5657 97.6476 16.7805 97.6476 18.8579C97.6476 20.9441 96.7419 22.1589 95.1525 22.1589ZM95.1525 23.8402C97.8698 23.8402 99.5361 21.9652 99.5361 18.8579C99.5361 15.7682 97.8613 13.8844 95.1525 13.8844C92.4352 13.8844 90.7604 15.7682 90.7604 18.8579C90.7604 21.9652 92.4267 23.8402 95.1525 23.8402ZM100.374 23.6553H102.211V17.9952C102.211 16.6484 103.194 15.7418 104.578 15.7418C104.886 15.7418 105.45 15.8034 105.595 15.8562V13.99C105.398 13.9372 105.048 13.9108 104.783 13.9108C103.57 13.9108 102.544 14.5974 102.28 15.5393H102.143V14.0693H100.374V23.6553ZM109.731 15.4953C111.09 15.4953 111.979 16.4724 112.021 17.9776H107.322C107.424 16.4812 108.373 15.4953 109.731 15.4953ZM112.013 21.0674C111.671 21.8156 110.91 22.2293 109.8 22.2293C108.33 22.2293 107.381 21.1642 107.322 19.4829V19.3773H113.893V18.7171C113.893 15.7065 112.329 13.8844 109.74 13.8844C107.116 13.8844 105.45 15.8298 105.45 18.8931C105.45 21.9564 107.082 23.8402 109.748 23.8402C111.876 23.8402 113.363 22.7839 113.782 21.0674H112.013Z"/>
</mask>
<path fill-rule="evenodd" clip-rule="evenodd" d="M50.9294 23.6553H52.9631L48.5112 10.9531H46.4519L42 23.6553H43.9653L45.1018 20.2839H49.8015L50.9294 23.6553ZM47.3833 13.2594H47.5285L49.3144 18.629H45.5888L47.3833 13.2594ZM58.3555 13.9108C57.0908 13.9108 55.9971 14.5622 55.4331 15.6537H55.2964V14.0693H53.5276V26.7627H55.3648V22.2029H55.51C55.9971 23.2152 57.0481 23.8138 58.3726 23.8138C60.7224 23.8138 62.2178 21.9036 62.2178 18.8579C62.2178 15.8122 60.7224 13.9108 58.3555 13.9108ZM57.8342 22.1149C56.2961 22.1149 55.3306 20.8649 55.3306 18.8667C55.3306 16.8597 56.2961 15.6097 57.8428 15.6097C59.398 15.6097 60.3294 16.8333 60.3294 18.8579C60.3294 20.8913 59.398 22.1149 57.8342 22.1149ZM67.8836 13.9108C66.6189 13.9108 65.5252 14.5622 64.9612 15.6537H64.8245V14.0693H63.0557V26.7627H64.8929V22.2029H65.0381C65.5252 23.2152 66.5762 23.8138 67.9007 23.8138C70.2505 23.8138 71.7459 21.9036 71.7459 18.8579C71.7459 15.8122 70.2505 13.9108 67.8836 13.9108ZM67.3624 22.1149C65.8243 22.1149 64.8587 20.8649 64.8587 18.8667C64.8587 16.8597 65.8243 15.6097 67.3709 15.6097C68.9261 15.6097 69.8575 16.8333 69.8575 18.8579C69.8575 20.8913 68.9261 22.1149 67.3624 22.1149ZM75.6349 20.2399C75.7716 22.511 77.6088 23.9634 80.3431 23.9634C83.2655 23.9634 85.0941 22.4406 85.0941 20.011C85.0941 18.1009 84.0516 17.0446 81.5223 16.4372L80.1637 16.0939C78.5572 15.7065 77.9078 15.1872 77.9078 14.2805C77.9078 13.1362 78.9161 12.3879 80.4286 12.3879C81.8641 12.3879 82.8553 13.1186 83.0348 14.2893H84.8976C84.7865 12.1503 82.9579 10.645 80.4542 10.645C77.7626 10.645 75.9681 12.1503 75.9681 14.4126C75.9681 16.2787 76.985 17.3879 79.2152 17.9248L80.8046 18.3209C82.4366 18.7171 83.1544 19.298 83.1544 20.2663C83.1544 21.3931 82.0265 22.2117 80.4884 22.2117C78.8392 22.2117 77.6942 21.4459 77.5319 20.2399H75.6349ZM86.6754 11.7454V14.1133H85.1459V15.7065H86.6754V21.1202C86.6754 22.9687 87.4872 23.7082 89.5294 23.7082C89.8883 23.7082 90.2216 23.6641 90.5121 23.6113V22.0357C90.2558 22.0621 90.1105 22.0797 89.8285 22.0797C88.9142 22.0797 88.5126 21.6395 88.5126 20.636V15.7065H90.5976V14.1133H88.5126V11.7454H86.6754ZM95.1525 22.1589C93.5546 22.1589 92.6574 20.9529 92.6574 18.8579C92.6574 16.7805 93.5546 15.5657 95.1525 15.5657C96.7419 15.5657 97.6476 16.7805 97.6476 18.8579C97.6476 20.9441 96.7419 22.1589 95.1525 22.1589ZM95.1525 23.8402C97.8698 23.8402 99.5361 21.9652 99.5361 18.8579C99.5361 15.7682 97.8613 13.8844 95.1525 13.8844C92.4352 13.8844 90.7604 15.7682 90.7604 18.8579C90.7604 21.9652 92.4267 23.8402 95.1525 23.8402ZM100.374 23.6553H102.211V17.9952C102.211 16.6484 103.194 15.7418 104.578 15.7418C104.886 15.7418 105.45 15.8034 105.595 15.8562V13.99C105.398 13.9372 105.048 13.9108 104.783 13.9108C103.57 13.9108 102.544 14.5974 102.28 15.5393H102.143V14.0693H100.374V23.6553ZM109.731 15.4953C111.09 15.4953 111.979 16.4724 112.021 17.9776H107.322C107.424 16.4812 108.373 15.4953 109.731 15.4953ZM112.013 21.0674C111.671 21.8156 110.91 22.2293 109.8 22.2293C108.33 22.2293 107.381 21.1642 107.322 19.4829V19.3773H113.893V18.7171C113.893 15.7065 112.329 13.8844 109.74 13.8844C107.116 13.8844 105.45 15.8298 105.45 18.8931C105.45 21.9564 107.082 23.8402 109.748 23.8402C111.876 23.8402 113.363 22.7839 113.782 21.0674H112.013Z" fill="white" stroke="white" stroke-width="2" mask="url(#path-2-inside-1)"/>
<path d="M29.7781 17.5643C29.7952 19.5613 30.6491 20.9067 31.5075 21.7472C31.9995 22.2288 32.4939 22.5463 32.8364 22.7325C32.7764 22.9088 32.6931 23.1367 32.5841 23.4011C32.3297 24.0185 31.9386 24.827 31.3831 25.6377L31.383 25.6377L31.3761 25.6482C30.8882 26.4003 30.4208 27.0911 29.8916 27.6004C29.3722 28.1003 28.8299 28.3895 28.1907 28.3993L28.1862 28.3994C27.5309 28.4153 27.1008 28.2269 26.5545 27.9874L26.5402 27.9812C25.9739 27.733 25.3141 27.4504 24.3079 27.4504C23.3006 27.4504 22.633 27.7122 22.055 27.9611C22.0176 27.9772 21.9807 27.9931 21.9444 28.0088C21.4278 28.2324 21.0117 28.4124 20.4107 28.4377C19.8406 28.459 19.2898 28.1673 18.7217 27.6182C18.1541 27.0695 17.6371 26.3302 17.1318 25.5854C16.1673 24.1334 15.3012 22.0716 14.9334 19.9234C14.5647 17.7702 14.7062 15.5917 15.6779 13.8588L15.6779 13.8588L15.6791 13.8565C16.6163 12.1648 18.3123 11.0979 20.0954 11.0695L20.0979 11.0695C20.7542 11.0557 21.4105 11.2846 22.0761 11.5555C22.158 11.5888 22.2412 11.6233 22.3249 11.6579C22.5659 11.7577 22.8105 11.8589 23.0371 11.9391C23.3422 12.047 23.6737 12.1394 23.9972 12.1394C24.3268 12.1394 24.685 12.0264 25.0113 11.9051C25.1901 11.8386 25.4009 11.7526 25.6143 11.6656C25.7787 11.5985 25.9446 11.5308 26.0988 11.4708C26.8722 11.1701 27.6715 10.9305 28.4533 11.0152L28.4727 11.0173L28.4922 11.0179C29.1345 11.0372 30.8686 11.2651 32.1266 12.8117C31.3315 13.4337 29.7557 14.9897 29.7781 17.5643ZM29.7781 17.5643L30.2781 17.56L29.7781 17.5644C29.7781 17.5644 29.7781 17.5643 29.7781 17.5643Z" fill="white" stroke="white"/>
<path d="M25.5196 6.80713L25.5202 6.80637C26.1651 6.02678 27.216 5.40732 28.1349 5.20397C28.1127 6.30678 27.658 7.38423 27.0118 8.21884C26.3369 9.03655 25.3404 9.64657 24.3689 9.7364C24.386 8.65865 24.9134 7.537 25.5196 6.80713Z" fill="white" stroke="white"/>
</g>
<defs>
<filter id="filter0_d" x="0" y="0" width="129" height="45" filterUnits="userSpaceOnUse" color-interpolation-filters="sRGB">
<feFlood flood-opacity="0" result="BackgroundImageFix"/>
<feColorMatrix in="SourceAlpha" type="matrix" values="0 0 0 0 0 0 0 0 0 0 0 0 0 0 0 0 0 0 127 0"/>
<feOffset dy="4"/>
<feGaussianBlur stdDeviation="2"/>
<feColorMatrix type="matrix" values="0 0 0 0 0 0 0 0 0 0 0 0 0 0 0 0 0 0 0.25 0"/>
<feBlend mode="normal" in2="BackgroundImageFix" result="effect1_dropShadow"/>
<feBlend mode="normal" in="SourceGraphic" in2="effect1_dropShadow" result="shape"/>
</filter>
</defs>
</svg>
