<svg width="130" height="40" viewBox="0 0 130 40" fill="none" xmlns="http://www.w3.org/2000/svg">
<g clip-path="url(#clip0)">
<path d="M3.57521 0.5H126.205C127.886 0.5 129.28 1.92029 129.28 3.7123V36.2877C129.28 38.0797 127.886 39.5 126.205 39.5H3.57521C1.89438 39.5 0.5 38.0797 0.5 36.2877V3.7123C0.5 1.92029 1.89438 0.5 3.57521 0.5Z" fill="black" stroke="white"/>
<path fill-rule="evenodd" clip-rule="evenodd" d="M50.3347 25.5734H52.516L47.741 11.8413H45.5323L40.7573 25.5734H42.8653L44.0842 21.9286H49.1249L50.3347 25.5734ZM46.5312 14.3345H46.6871L48.6025 20.1395H44.6066L46.5312 14.3345ZM58.2996 15.0388C56.9432 15.0388 55.7701 15.743 55.1652 16.923H55.0186V15.2101H53.1214V28.9327H55.0919V24.0032H55.2477C55.7701 25.0976 56.8974 25.7447 58.3179 25.7447C60.8383 25.7447 62.4422 23.6796 62.4422 20.387C62.4422 17.0943 60.8383 15.0388 58.2996 15.0388ZM57.7406 23.908C56.0909 23.908 55.0552 22.5567 55.0552 20.3965C55.0552 18.2267 56.0909 16.8754 57.7497 16.8754C59.4177 16.8754 60.4167 18.1982 60.4167 20.387C60.4167 22.5853 59.4177 23.908 57.7406 23.908ZM68.5191 15.0388C67.1627 15.0388 65.9896 15.743 65.3847 16.923H65.2381V15.2101H63.3409V28.9327H65.3114V24.0032H65.4672C65.9896 25.0976 67.1169 25.7447 68.5374 25.7447C71.0578 25.7447 72.6617 23.6796 72.6617 20.387C72.6617 17.0943 71.0578 15.0388 68.5191 15.0388ZM67.96 23.908C66.3104 23.908 65.2747 22.5567 65.2747 20.3965C65.2747 18.2267 66.3104 16.8754 67.9692 16.8754C69.6372 16.8754 70.6362 18.1982 70.6362 20.387C70.6362 22.5853 69.6372 23.908 67.96 23.908ZM76.8329 21.881C76.9795 24.3363 78.95 25.9065 81.8827 25.9065C85.0172 25.9065 86.9785 24.2601 86.9785 21.6336C86.9785 19.5686 85.8603 18.4266 83.1475 17.77L81.6903 17.3988C79.9673 16.9801 79.2707 16.4186 79.2707 15.4384C79.2707 14.2013 80.3522 13.3924 81.9744 13.3924C83.5141 13.3924 84.5772 14.1823 84.7697 15.448H86.7677C86.6485 13.1355 84.6872 11.5082 82.0019 11.5082C79.1149 11.5082 77.1903 13.1355 77.1903 15.5812C77.1903 17.5987 78.2809 18.7977 80.673 19.3782L82.3777 19.8065C84.1282 20.2347 84.898 20.8628 84.898 21.9096C84.898 23.1277 83.6882 24.0127 82.0385 24.0127C80.2697 24.0127 79.0416 23.1848 78.8675 21.881H76.8329ZM88.6745 12.6977V15.2576H87.034V16.9801H88.6745V22.8327C88.6745 24.8311 89.5452 25.6305 91.7356 25.6305C92.1206 25.6305 92.478 25.5829 92.7896 25.5258V23.8224C92.5147 23.8509 92.3589 23.87 92.0564 23.87C91.0758 23.87 90.645 23.3941 90.645 22.3093V16.9801H92.8813V15.2576H90.645V12.6977H88.6745ZM97.7667 23.9556C96.0529 23.9556 95.0906 22.6519 95.0906 20.387C95.0906 18.1411 96.0529 16.8278 97.7667 16.8278C99.4714 16.8278 100.443 18.1411 100.443 20.387C100.443 22.6424 99.4714 23.9556 97.7667 23.9556ZM97.7667 25.7732C100.681 25.7732 102.468 23.7463 102.468 20.387C102.468 17.0467 100.672 15.0102 97.7667 15.0102C94.8523 15.0102 93.0559 17.0467 93.0559 20.387C93.0559 23.7463 94.8431 25.7732 97.7667 25.7732ZM103.367 25.5734H105.338V19.4544C105.338 17.9984 106.392 17.0182 107.876 17.0182C108.206 17.0182 108.811 17.0848 108.967 17.1419V15.1244C108.756 15.0673 108.38 15.0388 108.096 15.0388C106.795 15.0388 105.695 15.781 105.411 16.7993H105.264V15.2101H103.367V25.5734ZM113.403 16.7517C114.861 16.7517 115.814 17.808 115.859 19.4353H110.819C110.929 17.8175 111.946 16.7517 113.403 16.7517ZM115.85 22.7756C115.484 23.5845 114.668 24.0317 113.477 24.0317C111.9 24.0317 110.883 22.8803 110.819 21.0626V20.9484H117.867V20.2347C117.867 16.9801 116.189 15.0102 113.412 15.0102C110.599 15.0102 108.812 17.1133 108.812 20.425C108.812 23.7367 110.562 25.7732 113.422 25.7732C115.704 25.7732 117.298 24.6313 117.747 22.7756H115.85Z" fill="white"/>
<path fill-rule="evenodd" clip-rule="evenodd" d="M28.1849 18.9842C28.1561 15.6649 30.8024 14.0501 30.9234 13.9749C29.4247 11.7061 27.1018 11.3961 26.2855 11.3713C24.3345 11.1582 22.4421 12.5835 21.4483 12.5835C20.4346 12.5835 18.9042 11.3919 17.2547 11.427C15.1322 11.4609 13.1465 12.737 12.0575 14.7184C9.80996 18.7586 11.4862 24.6959 13.6395 27.9616C14.7166 29.562 15.9753 31.3468 17.6227 31.284C19.2345 31.216 19.8365 30.2171 21.7815 30.2171C23.7087 30.2171 24.274 31.284 25.9542 31.2428C27.684 31.216 28.773 29.6372 29.8125 28.0224C31.0573 26.1913 31.5571 24.3838 31.577 24.2911C31.5373 24.2778 28.2186 22.9626 28.1849 18.9842Z" fill="white"/>
<path fill-rule="evenodd" clip-rule="evenodd" d="M25.1005 9.22301C25.9674 8.09735 26.5605 6.56592 26.3959 5.01184C25.1412 5.06951 23.5721 5.91298 22.6685 7.01392C21.8691 7.98406 21.155 9.57419 21.3395 11.0696C22.7489 11.1787 24.196 10.3312 25.1005 9.22301Z" fill="white"/>
</g>
<defs>
<clipPath id="clip0">
<rect width="129.78" height="40" fill="white"/>
</clipPath>
</defs>
</svg>
