<svg width="40" height="40" viewBox="0 0 40 40" fill="none" xmlns="http://www.w3.org/2000/svg">
<g clip-path="url(#clip0)">
<path d="M40.0002 20.0003C40.0002 18.8959 39.1047 18.0004 38.0003 18.0004H5.33437V4.66735C5.33665 2.82755 6.8275 1.33637 8.66762 1.3341C9.19821 1.33312 9.70764 1.5434 10.083 1.91872C10.4583 2.29403 10.6686 2.80346 10.6676 3.33405V4.0007H9.4915C8.73338 3.99842 8.03971 4.42712 7.7028 5.10614L6.73766 7.03937C6.63577 7.24574 6.64781 7.4902 6.76923 7.68551C6.89065 7.88114 7.10418 8.00028 7.33432 8.00061H15.3341C15.5652 8.00093 15.7798 7.88114 15.9015 7.68486C16.0229 7.48825 16.034 7.24281 15.9308 7.03611L14.9653 5.10289C14.6278 4.42484 13.9341 3.99777 13.177 4.0007H12.0009V3.33405C12.0019 2.44996 11.651 1.60167 11.0256 0.976357C10.4003 0.351047 9.55204 0.000143335 8.66762 0.000794361C6.09151 0.00372398 4.004 2.09157 4.00107 4.66735V18.0004H2.00111C1.00993 17.9971 0.166523 18.7224 0.0216691 19.7028C-0.12351 20.6833 0.473807 21.6217 1.42365 21.9052L3.2423 32.3623C3.73838 35.2382 6.23506 37.3378 9.15361 37.3333H9.58883L10.3694 38.8947C10.7063 39.5738 11.4 40.0025 12.1581 39.9999H13.177C13.9351 40.0025 14.6284 39.5738 14.9653 38.8947L15.7462 37.3333H24.2551L25.0357 38.8947C25.3726 39.5738 26.0663 40.0025 26.8244 39.9999H27.8433C28.6014 40.0025 29.2947 39.5738 29.6316 38.8947L30.4126 37.3333H30.8478C33.7663 37.3378 36.2633 35.2376 36.7591 32.3614L38.5774 21.9052C39.4195 21.6526 39.997 20.8792 40.0002 20.0003ZM13.7726 5.70281L14.2554 6.6673H8.41307L8.89548 5.70281C9.00778 5.47625 9.2389 5.33335 9.4915 5.334H13.177C13.4296 5.33335 13.6607 5.47625 13.7726 5.70281ZM13.7726 38.2981C13.6607 38.5246 13.4296 38.6675 13.177 38.6666H12.1581C11.9055 38.6675 11.6744 38.5246 11.5621 38.2981L11.0797 37.3333H14.2554L13.7726 38.2981ZM28.439 38.2981C28.327 38.5246 28.0959 38.6675 27.8433 38.6666H26.8244C26.5718 38.6675 26.3407 38.5246 26.2284 38.2981L25.746 37.3333H28.9217L28.439 38.2981ZM35.445 32.1335C35.0596 34.3717 33.1159 36.0055 30.8452 35.9999H9.15361C6.88251 36.0055 4.93887 34.3717 4.55379 32.1335L2.79374 22.0003H37.2076L35.445 32.1335ZM38.0003 20.667H2.00111C1.63296 20.667 1.33446 20.3688 1.33446 20.0003C1.33446 19.6322 1.63296 19.3337 2.00111 19.3337H38.0003C38.3684 19.3337 38.6669 19.6322 38.6669 20.0003C38.6669 20.3688 38.3684 20.667 38.0003 20.667Z" fill="#140300"/>
<path d="M30.8478 35.3333C32.7937 35.3366 34.4584 33.9366 34.7891 32.019C34.8519 31.656 34.6084 31.311 34.2458 31.2482C33.8829 31.1853 33.5378 31.4288 33.475 31.7914C33.2543 33.0697 32.1446 34.0026 30.8478 34C30.4796 34 30.1812 34.2985 30.1812 34.6667C30.1812 35.0352 30.4796 35.3333 30.8478 35.3333Z" fill="#140300"/>
<path d="M10.6672 9.33389V16.0004C10.6672 16.3689 10.9657 16.6671 11.3339 16.6671C11.702 16.6671 12.0005 16.3689 12.0005 16.0004V9.33389C12.0005 8.96573 11.702 8.66724 11.3339 8.66724C10.9657 8.66724 10.6672 8.96573 10.6672 9.33389Z" fill="#140300"/>
<path d="M10.0008 9.3339C10.0008 8.96574 9.70231 8.66724 9.33414 8.66724C8.96598 8.66724 8.66748 8.96574 8.66748 9.3339V10.6672C8.66748 11.0357 8.96598 11.3339 9.33414 11.3339C9.70231 11.3339 10.0008 11.0357 10.0008 10.6672V9.3339Z" fill="#140300"/>
<path d="M7.33415 14.0005C6.96598 14.0005 6.66748 14.299 6.66748 14.6672V16.0005C6.66748 16.369 6.96598 16.6672 7.33415 16.6672C7.70231 16.6672 8.00081 16.369 8.00081 16.0005V14.6672C8.00081 14.299 7.70231 14.0005 7.33415 14.0005Z" fill="#140300"/>
<path d="M8.00079 9.33389C8.00079 8.96573 7.70229 8.66724 7.33413 8.66724C6.96598 8.66724 6.66748 8.96573 6.66748 9.33389V12.6671C6.66748 13.0356 6.96598 13.3338 7.33413 13.3338C7.70229 13.3338 8.00079 13.0356 8.00079 12.6671V9.33389Z" fill="#140300"/>
<path d="M9.33413 12.0005C8.96598 12.0005 8.66748 12.299 8.66748 12.6671V16.0004C8.66748 16.3689 8.96598 16.667 9.33413 16.667C9.70229 16.667 10.0008 16.3689 10.0008 16.0004V12.6671C10.0008 12.299 9.70229 12.0005 9.33413 12.0005Z" fill="#140300"/>
<path d="M13.3339 14.0005C12.9657 14.0005 12.6672 14.299 12.6672 14.6672V16.0005C12.6672 16.369 12.9657 16.6672 13.3339 16.6672C13.7021 16.6672 14.0006 16.369 14.0006 16.0005V14.6672C14.0006 14.299 13.7021 14.0005 13.3339 14.0005Z" fill="#140300"/>
<path d="M16.0008 9.3339C16.0008 8.96574 15.7023 8.66724 15.3341 8.66724C14.966 8.66724 14.6675 8.96574 14.6675 9.3339V10.6672C14.6675 11.0357 14.966 11.3339 15.3341 11.3339C15.7023 11.3339 16.0008 11.0357 16.0008 10.6672V9.3339Z" fill="#140300"/>
<path d="M15.3341 12.0005C14.966 12.0005 14.6675 12.299 14.6675 12.6671V16.0004C14.6675 16.3689 14.966 16.667 15.3341 16.667C15.7023 16.667 16.0008 16.3689 16.0008 16.0004V12.6671C16.0008 12.299 15.7023 12.0005 15.3341 12.0005Z" fill="#140300"/>
<path d="M14.0005 9.33389C14.0005 8.96573 13.702 8.66724 13.3339 8.66724C12.9657 8.66724 12.6672 8.96573 12.6672 9.33389V12.6671C12.6672 13.0356 12.9657 13.3338 13.3339 13.3338C13.702 13.3338 14.0005 13.0356 14.0005 12.6671V9.33389Z" fill="#140300"/>
<path d="M27.3339 35.3333H28.6672C29.0354 35.3333 29.3339 35.0352 29.3339 34.6667C29.3339 34.2985 29.0354 34 28.6672 34H27.3339C26.9657 34 26.6672 34.2985 26.6672 34.6667C26.6672 35.0352 26.9657 35.3333 27.3339 35.3333Z" fill="#140300"/>
</g>
<defs>
<clipPath id="clip0">
<rect width="40" height="40" fill="white"/>
</clipPath>
</defs>
</svg>
