<svg width="40" height="40" viewBox="0 0 40 40" fill="none" xmlns="http://www.w3.org/2000/svg">
<path d="M35.3333 15.488V8.00002C35.3311 6.15985 33.8402 4.66897 32 4.66669H8C6.15983 4.66897 4.66895 6.15985 4.66667 8.00002V15.488C1.93978 16.112 0.00455729 18.5358 0 21.3334V30.6667C0 31.0348 0.298503 31.3334 0.666667 31.3334H1.33333V34.6667C1.33333 35.0348 1.63184 35.3334 2 35.3334H4.66667C5.03483 35.3334 5.33333 35.0348 5.33333 34.6667V31.3334H34.6667V34.6667C34.6667 35.0348 34.9652 35.3334 35.3333 35.3334H38C38.3682 35.3334 38.6667 35.0348 38.6667 34.6667V31.3334H39.3333C39.7015 31.3334 40 31.0348 40 30.6667V21.3334C39.9954 18.5358 38.0602 16.112 35.3333 15.488ZM6 8.00002C6 6.89553 6.89551 6.00002 8 6.00002H32C33.1045 6.00002 34 6.89553 34 8.00002V15.3334H31.3333V12C31.3333 10.8955 30.4378 10 29.3333 10H22.6667C21.5622 10 20.6667 10.8955 20.6667 12V15.3334H19.3333V12C19.3333 10.8955 18.4378 10 17.3333 10H10.6667C9.56217 10 8.66667 10.8955 8.66667 12V15.3334H6V8.00002ZM30 15.3334H22V12C22 11.6319 22.2985 11.3334 22.6667 11.3334H29.3333C29.7015 11.3334 30 11.6319 30 12V15.3334ZM18 15.3334H10V12C10 11.6319 10.2985 11.3334 10.6667 11.3334H17.3333C17.7015 11.3334 18 11.6319 18 12V15.3334ZM1.33333 21.3334C1.33626 18.7572 3.42383 16.6696 6 16.6667H34C36.5762 16.6696 38.6637 18.7572 38.6667 21.3334V27.3334H1.33333V21.3334ZM4 34H2.66667V31.3334H4V34ZM37.3333 34H36V31.3334H37.3333V34ZM38.6667 30H1.33333V28.6667H38.6667V30Z" fill="#140300"/>
<path d="M33.3333 25.3334H31.9999C31.6318 25.3334 31.3333 25.6319 31.3333 26C31.3333 26.3682 31.6318 26.6667 31.9999 26.6667H33.3333C33.7014 26.6667 33.9999 26.3682 33.9999 26C33.9999 25.6319 33.7014 25.3334 33.3333 25.3334Z" fill="#140300"/>
<path d="M37.3334 23.3334C36.9653 23.3334 36.6668 23.6319 36.6668 24V25.3334H35.3334C34.9653 25.3334 34.6667 25.6319 34.6667 26C34.6667 26.3682 34.9653 26.6667 35.3334 26.6667H37.3334C37.7016 26.6667 38.0001 26.3682 38.0001 26V24C38.0001 23.6319 37.7016 23.3334 37.3334 23.3334Z" fill="#140300"/>
<path d="M6 17.3334C3.79167 17.3357 2.00228 19.125 2 21.3334V26C2 26.3682 2.2985 26.6667 2.66667 26.6667C3.03483 26.6667 3.33333 26.3682 3.33333 26V21.3334C3.33333 19.8607 4.52734 18.6667 6 18.6667C6.36817 18.6667 6.66667 18.3682 6.66667 18C6.66667 17.6319 6.36817 17.3334 6 17.3334Z" fill="#140300"/>
</svg>
