<svg width="60" height="60" viewBox="0 0 60 60" fill="none" xmlns="http://www.w3.org/2000/svg">
<g clip-path="url(#clip0)">
<path d="M7.00098 38C6.44869 38 6.00098 38.4477 6.00098 39V40C6.00098 40.5523 6.44869 41 7.00098 41C7.55326 41 8.00098 40.5523 8.00098 40V39C8.00098 38.4477 7.55326 38 7.00098 38Z" fill="#C9472C"/>
<path d="M7.00098 43C6.44869 43 6.00098 43.4477 6.00098 44V51C6.00098 51.5523 6.44869 52 7.00098 52C7.55326 52 8.00098 51.5523 8.00098 51V44C8.00098 43.4477 7.55326 43 7.00098 43Z" fill="#C9472C"/>
<path d="M29.002 54H23.002C22.4497 54 22.002 54.4477 22.002 55C22.002 55.5523 22.4497 56 23.002 56H29.002C29.5542 56 30.002 55.5523 30.002 55C30.002 54.4477 29.5542 54 29.002 54Z" fill="#C9472C"/>
<path d="M19.0244 53.9999C18.5168 53.9241 18.0514 53.6737 17.7084 53.2919C17.316 52.913 16.6923 52.9184 16.3066 53.3041C15.9208 53.6899 15.9154 54.3136 16.2944 54.7059C16.9983 55.4672 17.9669 55.9302 19.0014 55.9999C19.5412 55.9989 19.9803 55.5647 19.9874 55.0249C19.9955 54.4794 19.5694 54.0258 19.0244 53.9999Z" fill="#C9472C"/>
<path d="M57.0008 0H9.00081C7.34396 0 6.00081 1.34315 6.00081 3V33.848C5.00428 33.9516 4.00267 33.9987 3.00081 33.989C1.34669 33.9929 0.007808 35.3349 0.0078125 36.989V52.989C0.0078125 54.6459 1.35096 55.989 3.00781 55.989H8.81681C8.87881 55.989 8.93681 56.001 9.00081 56.001H10.3008C10.7191 56.0158 11.1227 56.1589 11.4568 56.411C12.2095 56.9931 13.0127 57.5068 13.8568 57.946C16.211 59.1843 18.8103 59.8858 21.4678 60C21.6458 60 21.8228 60 22.0008 59.987H26.0508H26.0598L37.0008 60C39.21 60 41.0008 58.2091 41.0008 56H57.0008C58.6577 56 60.0008 54.6569 60.0008 53V3C60.0008 1.34315 58.6577 0 57.0008 0ZM42.0008 2V17.3L34.4868 13.126C34.1846 12.9579 33.817 12.9579 33.5148 13.126L26.0008 17.3V2H42.0008ZM37.0008 58L26.0488 57.988H26.0398H21.9508C19.4498 57.9571 16.9919 57.3334 14.7788 56.168C14.0383 55.7802 13.3332 55.3282 12.6718 54.817C12.0567 54.355 11.3228 54.0775 10.5558 54.017C10.5298 54.017 10.5078 54.002 10.4808 54.002H10.3748C10.3278 54.002 10.2818 53.99 10.2358 53.99H3.00081C2.44853 53.99 2.00081 53.5423 2.00081 52.99V36.99C2.00081 36.4377 2.44853 35.99 3.00081 35.99C5.35381 35.99 8.70081 35.827 10.5908 34.425C10.7698 34.293 10.9908 34.152 11.2178 34.004C11.7123 33.7044 12.1791 33.3614 12.6128 32.979C16.1808 30.814 17.4528 23.354 17.8898 17.439C17.9444 16.6232 18.6262 15.9918 19.4438 16C20.3035 16.0006 21.0003 16.6973 21.0008 17.557V32C21.0008 34.2091 22.7917 36 25.0008 36L33.0008 35.993C33.0088 35.993 33.0148 35.993 33.0228 35.993H39.0178C39.7535 35.9463 40.4552 36.3081 40.8439 36.9344C41.2326 37.5607 41.2452 38.3501 40.8768 38.9886C40.5084 39.6271 39.8186 40.0111 39.0818 39.988C39.0321 39.995 38.983 40.0057 38.9348 40.02L37.0218 40H37.0138C36.4615 39.9981 36.0122 40.4442 36.0103 40.9965C36.0084 41.5488 36.4545 41.9981 37.0068 42L41.9938 42.036H42.0008C43.1054 42.036 44.0008 42.9314 44.0008 44.036C44.0018 44.9649 43.3631 45.7723 42.4588 45.985L37.0008 46C36.4485 46 36.0008 46.4477 36.0008 47C36.0008 47.5523 36.4485 48 37.0008 48L39.9608 47.992C39.9738 47.992 39.9848 48 39.9978 48C41.1024 48 41.9978 48.8954 41.9978 50C41.9978 51.1046 41.1024 52 39.9978 52H36.0008C35.4485 52 35.0008 52.4477 35.0008 53C35.0008 53.5523 35.4485 54 36.0008 54H37.0008C38.1054 54 39.0008 54.8954 39.0008 56C39.0008 57.1046 38.1054 58 37.0008 58ZM58.0008 53C58.0008 53.5523 57.5531 54 57.0008 54H40.4458C40.4368 53.985 40.4298 53.97 40.4208 53.956C41.8084 53.8177 43.022 52.9624 43.6189 51.7022C44.2158 50.4421 44.1088 48.9612 43.3368 47.8C44.9329 47.2363 46.0004 45.7277 46.0008 44.035C45.9958 43.685 45.9454 43.3371 45.8508 43H54.0008C54.5531 43 55.0008 42.5523 55.0008 42C55.0008 41.4477 54.5531 41 54.0008 41H44.5768C43.9791 40.4845 43.2386 40.1633 42.4538 40.079C42.8395 39.4542 43.0434 38.7343 43.0428 38H54.0008C54.5531 38 55.0008 37.5523 55.0008 37C55.0008 36.4477 54.5531 36 54.0008 36H42.5098C41.8112 34.7228 40.456 33.9446 39.0008 33.985H31.9528C31.9428 33.985 31.9358 33.99 31.9258 33.99L25.0008 34C23.8962 34 23.0008 33.1046 23.0008 32V17.557C22.9875 15.6545 21.4792 14.0996 19.578 14.0283C17.6769 13.9571 16.0564 15.3949 15.9008 17.291C15.3428 24.833 13.7008 30.073 11.5118 31.308C11.427 31.356 11.3496 31.416 11.2818 31.486C10.9268 31.8013 10.5428 32.0822 10.1348 32.325C9.87081 32.496 9.61681 32.661 9.40781 32.815C8.98131 33.1089 8.50788 33.328 8.00781 33.463V3C8.0078 2.45044 8.45126 2.00385 9.00081 2H24.0008V19C24.0008 19.3544 24.1884 19.6823 24.4938 19.862C24.7993 20.0417 25.1771 20.0462 25.4868 19.874L34.0008 15.144L42.5148 19.874C42.8245 20.0462 43.2023 20.0417 43.5078 19.862C43.8133 19.6823 44.0008 19.3544 44.0008 19V2H57.0008C57.5531 2 58.0008 2.44772 58.0008 3V53Z" fill="#455059"/>
<path d="M53.999 26H39.999C39.4467 26 38.999 26.4477 38.999 27C38.999 27.5523 39.4467 28 39.999 28H53.999C54.5513 28 54.999 27.5523 54.999 27C54.999 26.4477 54.5513 26 53.999 26Z" fill="#C9472C"/>
<path d="M54.001 31H43.001C42.4487 31 42.001 31.4477 42.001 32C42.001 32.5523 42.4487 33 43.001 33H54.001C54.5533 33 55.001 32.5523 55.001 32C55.001 31.4477 54.5533 31 54.001 31Z" fill="#C9472C"/>
</g>
<defs>
<clipPath id="clip0">
<rect width="60" height="60" fill="white"/>
</clipPath>
</defs>
</svg>
