<svg width="24" height="22" viewBox="0 0 24 22" fill="none" xmlns="http://www.w3.org/2000/svg">
<path d="M23.0628 4.73727C22.4378 4.11232 21.6838 3.79975 20.8004 3.79975H18.0004L17.363 2.09986C17.2046 1.69159 16.9151 1.33944 16.4941 1.04348C16.0732 0.747638 15.642 0.599609 15.2003 0.599609H8.8001C8.35842 0.599609 7.92712 0.747638 7.50624 1.04348C7.08536 1.33944 6.79587 1.69159 6.63751 2.09986L6.00003 3.79975H3.20001C2.31653 3.79975 1.56251 4.11232 0.937426 4.73727C0.312475 5.36226 0 6.11637 0 6.99977V18.1999C0 19.0833 0.312475 19.8375 0.937426 20.4623C1.56251 21.0874 2.31657 21.4 3.20001 21.4H20.8001C21.6835 21.4 22.4374 21.0874 23.0625 20.4623C23.6874 19.8375 24 19.0833 24 18.1999V6.99977C24.0002 6.11637 23.6876 5.36226 23.0628 4.73727ZM15.9563 16.5562C14.8605 17.6521 13.5419 18.2002 12.0001 18.2002C10.4583 18.2002 9.13972 17.6521 8.0438 16.5562C6.94788 15.4605 6.40003 14.1416 6.40003 12.6002C6.40003 11.0582 6.94805 9.73972 8.0438 8.6438C9.13958 7.54788 10.4583 7.00003 12.0001 7.00003C13.5418 7.00003 14.8605 7.54801 15.9563 8.6438C17.0522 9.73958 17.6001 11.0582 17.6001 12.6002C17.6001 14.1416 17.0523 15.4604 15.9563 16.5562Z" fill="C9472C"/>
</svg>
