<svg width="60" height="60" viewBox="0 0 60 60" fill="none" xmlns="http://www.w3.org/2000/svg">
<g clip-path="url(#clip0)">
<path d="M11.9798 60H47.9765C51.2885 59.9968 53.9726 57.3127 53.9763 54.0007V12.0042C53.9726 8.69214 51.2885 6.00806 47.9765 6.00485H41.1971C40.6332 5.37137 39.8258 5.00748 38.9776 5.00519H35.8949C35.4092 2.11605 32.9078 0 29.9784 0C27.0485 0 24.5475 2.11605 24.0619 5.00519H20.9791C20.1305 5.00748 19.3235 5.37137 18.7592 6.00485H11.9798C8.66775 6.00806 5.98367 8.69214 5.98047 12.0042V54.0007C5.98367 57.3127 8.66775 59.9968 11.9798 60ZM47.9765 45.0014H40.9774C39.873 45.0014 38.9776 45.8967 38.9776 47.0012V54.0007H12.98C12.4275 54.0007 11.9798 53.553 11.9798 53.0005V13.0043C11.9798 12.4519 12.4275 12.0042 12.98 12.0042H17.9792C17.9792 13.6612 19.3226 15.0041 20.9791 15.0041H38.9776C40.6341 15.0041 41.9771 13.6612 41.9771 12.0042H46.9768C47.5288 12.0042 47.9765 12.4519 47.9765 13.0043V45.0014ZM46.5626 47.0012L40.9774 52.5868V47.0012H46.5626ZM20.9791 7.00498H24.9787C25.5311 7.00498 25.9788 6.55733 25.9788 6.00485C25.9788 3.79589 27.7694 2.00528 29.9784 2.00528C32.1873 2.00528 33.9779 3.79589 33.9779 6.00485C33.9779 6.55733 34.4256 7.00498 34.9776 7.00498H38.9776C39.5297 7.00498 39.9773 7.45263 39.9773 8.00464V12.0042C39.9773 12.5567 39.5297 13.0043 38.9776 13.0043H20.9791C20.4266 13.0043 19.979 12.5567 19.979 12.0042V8.00464C19.979 7.45263 20.4266 7.00498 20.9791 7.00498ZM7.98026 12.0042C7.98026 9.79525 9.77086 8.00464 11.9798 8.00464H17.9792V10.0044H12.98C11.323 10.0044 9.98004 11.3474 9.98004 13.0043V53.0005C9.98004 54.6575 11.323 56.0005 12.98 56.0005H39.1493C39.5626 55.9991 39.9714 55.9121 40.3494 55.7446C40.3682 55.7373 40.3833 55.7254 40.4012 55.7176C40.7234 55.5702 41.0168 55.367 41.2681 55.1175L49.0956 47.29C49.3423 47.0396 49.5428 46.7481 49.6883 46.4281C49.6984 46.4071 49.7117 46.3901 49.7195 46.3691C49.8865 45.9914 49.9735 45.5827 49.9744 45.1694V13.0043C49.9744 11.3474 48.6315 10.0044 46.9745 10.0044H41.9771V8.00464H47.9765C50.1854 8.00464 51.976 9.79525 51.976 12.0042V54.0007C51.976 56.2096 50.1854 58.0002 47.9765 58.0002H11.9798C9.77086 58.0002 7.98026 56.2096 7.98026 54.0007V12.0042Z" fill="#455059"/>
<path d="M24.9801 11.0046H34.9791C35.5316 11.0046 35.9792 10.5569 35.9792 10.0044C35.9792 9.45241 35.5316 9.00476 34.9791 9.00476H24.9801C24.4281 9.00476 23.9805 9.45241 23.9805 10.0044C23.9805 10.5569 24.4281 11.0046 24.9801 11.0046Z" fill="#455059"/>
<path d="M22.9807 26.0032C22.4287 26.0032 21.9806 26.4508 21.9806 27.0028V28.0029H15.9812V22.0036H18.9811C19.5332 22.0036 19.9808 21.5559 19.9808 21.0035C19.9808 20.4514 19.5332 20.0038 18.9811 20.0038H15.9812C14.8767 20.0038 13.9814 20.8991 13.9814 22.0036V28.0029C13.9814 29.1074 14.8767 30.0027 15.9812 30.0027H21.9806C23.0851 30.0027 23.9808 29.1074 23.9808 28.0029V27.0028C23.9808 26.4508 23.5332 26.0032 22.9807 26.0032Z" fill="#C9472C"/>
<path d="M21.9806 34.0023H15.9812C14.8767 34.0023 13.9814 34.8976 13.9814 36.0021V42.0015C13.9814 43.1059 14.8767 44.0012 15.9812 44.0012H21.9806C23.0851 44.0012 23.9808 43.1059 23.9808 42.0015V36.0021C23.9808 34.8976 23.0851 34.0023 21.9806 34.0023ZM15.9812 42.0015V36.0021H21.9806V42.0015H15.9812Z" fill="#C9472C"/>
<path d="M26.9792 24.0035H31.9789C32.5309 24.0035 32.9785 23.5558 32.9785 23.0033C32.9785 22.4513 32.5309 22.0037 31.9789 22.0037H26.9792C26.4271 22.0037 25.9795 22.4513 25.9795 23.0033C25.9795 23.5558 26.4271 24.0035 26.9792 24.0035Z" fill="#C9472C"/>
<path d="M44.9779 22.0037H35.9786C35.4262 22.0037 34.9785 22.4513 34.9785 23.0033C34.9785 23.5558 35.4262 24.0035 35.9786 24.0035H44.9779C45.5299 24.0035 45.9776 23.5558 45.9776 23.0033C45.9776 22.4513 45.5299 22.0037 44.9779 22.0037Z" fill="#455059"/>
<path d="M26.9792 28.003H36.9781C37.5306 28.003 37.9782 27.5553 37.9782 27.0028C37.9782 26.4508 37.5306 26.0032 36.9781 26.0032H26.9792C26.4271 26.0032 25.9795 26.4508 25.9795 27.0028C25.9795 27.5553 26.4271 28.003 26.9792 28.003Z" fill="#455059"/>
<path d="M44.9782 26.0032H40.9786C40.4262 26.0032 39.9785 26.4508 39.9785 27.0028C39.9785 27.5553 40.4262 28.003 40.9786 28.003H44.9782C45.5302 28.003 45.9779 27.5553 45.9779 27.0028C45.9779 26.4508 45.5302 26.0032 44.9782 26.0032Z" fill="#C9472C"/>
<path d="M26.9792 38.0019H31.9789C32.5309 38.0019 32.9785 37.5542 32.9785 37.0022C32.9785 36.4497 32.5309 36.0021 31.9789 36.0021H26.9792C26.4271 36.0021 25.9795 36.4497 25.9795 37.0022C25.9795 37.5542 26.4271 38.0019 26.9792 38.0019Z" fill="#C9472C"/>
<path d="M44.9779 36.0021H35.9786C35.4262 36.0021 34.9785 36.4497 34.9785 37.0022C34.9785 37.5542 35.4262 38.0019 35.9786 38.0019H44.9779C45.5299 38.0019 45.9776 37.5542 45.9776 37.0022C45.9776 36.4497 45.5299 36.0021 44.9779 36.0021Z" fill="#455059"/>
<path d="M36.9781 40.0017H26.9792C26.4271 40.0017 25.9795 40.4494 25.9795 41.0018C25.9795 41.5538 26.4271 42.0015 26.9792 42.0015H36.9781C37.5306 42.0015 37.9782 41.5538 37.9782 41.0018C37.9782 40.4494 37.5306 40.0017 36.9781 40.0017Z" fill="#455059"/>
<path d="M44.9782 40.0017H40.9786C40.4262 40.0017 39.9785 40.4494 39.9785 41.0018C39.9785 41.5538 40.4262 42.0015 40.9786 42.0015H44.9782C45.5302 42.0015 45.9779 41.5538 45.9779 41.0018C45.9779 40.4494 45.5302 40.0017 44.9782 40.0017Z" fill="#C9472C"/>
<path d="M24.1681 18.4229L19.8536 24.4611L18.6887 23.2962C18.2965 22.9172 17.6726 22.9227 17.2872 23.3086C16.9013 23.6944 16.8958 24.3179 17.2748 24.7101L19.2746 26.7099C19.4623 26.8976 19.7163 27.0029 19.9813 27.0029H20.0637C20.3567 26.9786 20.624 26.8262 20.7942 26.5872L25.7939 19.5878C26.0182 19.298 26.0663 18.909 25.9189 18.5734C25.7715 18.2379 25.4525 18.01 25.0872 17.9793C24.7224 17.9482 24.3695 18.1198 24.1681 18.4256V18.4229Z" fill="#C9472C"/>
</g>
<defs>
<clipPath id="clip0">
<rect width="60" height="60" fill="white"/>
</clipPath>
</defs>
</svg>
