<svg width="24" height="24" viewBox="0 0 24 24" fill="none" xmlns="http://www.w3.org/2000/svg">
<g clip-path="url(#clip0)">
<path d="M21.923 3.9375H2.07697C0.931641 3.9375 0 4.86914 0 6.01447V18.0145C0 19.1596 0.931641 20.0914 2.07697 20.0914H21.923C23.0684 20.0914 24 19.1596 24 18.0145V6.01447C24 4.86914 23.0684 3.9375 21.923 3.9375V3.9375ZM2.07697 5.32214H21.923C22.3048 5.32214 22.6154 5.63269 22.6154 6.01447V7.16821H1.38464V6.01447C1.38464 5.63269 1.69519 5.32214 2.07697 5.32214ZM22.6154 9.9375H1.38464V8.55286H22.6154V9.9375ZM21.923 18.7068H2.07697C1.69519 18.7068 1.38464 18.3962 1.38464 18.0145V11.3221H22.6154V18.0145C22.6154 18.3962 22.3048 18.7068 21.923 18.7068Z" fill="#140300"/>
<path d="M18.923 13.1682C18.3914 13.1682 17.9062 13.3693 17.5383 13.6989C17.1707 13.3693 16.6854 13.1682 16.1539 13.1682C15.0085 13.1682 14.0769 14.1 14.0769 15.2452C14.0769 16.3903 15.0085 17.3221 16.1539 17.3221C16.6854 17.3221 17.1707 17.1211 17.5383 16.7915C17.9062 17.1213 18.3914 17.3221 18.923 17.3221C20.0683 17.3221 20.9999 16.3903 20.9999 15.2452C20.9999 14.1 20.0683 13.1682 18.923 13.1682ZM16.1539 15.9375C15.7721 15.9375 15.4615 15.627 15.4615 15.2452C15.4615 14.8634 15.7721 14.5529 16.1539 14.5529C16.5355 14.5529 16.846 14.8634 16.846 15.2452C16.846 15.627 16.5355 15.9375 16.1539 15.9375ZM18.923 15.9375C18.5412 15.9375 18.2307 15.627 18.2307 15.2452C18.2307 14.8634 18.5412 14.5529 18.923 14.5529C19.3047 14.5529 19.6153 14.8634 19.6153 15.2452C19.6153 15.627 19.3047 15.9375 18.923 15.9375Z" fill="#140300"/>
<path d="M6.46161 14.5529H3.69232C3.31 14.5529 3 14.8629 3 15.2452C3 15.6275 3.31 15.9375 3.69232 15.9375H6.46161C6.84393 15.9375 7.15393 15.6275 7.15393 15.2452C7.15393 14.8629 6.84393 14.5529 6.46161 14.5529Z" fill="#140300"/>
</g>
<defs>
<clipPath id="clip0">
<rect width="24" height="24" fill="white"/>
</clipPath>
</defs>
</svg>
