<svg width="28" height="24" viewBox="0 0 28 24" fill="none" xmlns="http://www.w3.org/2000/svg">
<path d="M26.8895 5.57196C26.1492 4.83159 25.263 4.46147 24.2308 4.46147H12.9231V3.92302C12.9231 2.89097 12.5528 2.00473 11.8125 1.26454C11.0722 0.52417 10.1859 0.153809 9.15383 0.153809H3.76921C2.73693 0.153809 1.85075 0.524111 1.11049 1.26454C0.370126 2.00473 0 2.89097 0 3.92302V20.077C0 21.1089 0.370126 21.9951 1.11049 22.7353C1.85086 23.4758 2.73716 23.8462 3.76921 23.8462H24.2307C25.263 23.8462 26.1492 23.4759 26.8894 22.7353C27.63 21.995 27.9999 21.1088 27.9999 20.077V8.23091C28 7.19881 27.6301 6.31263 26.8895 5.57196Z" fill="black"/>
</svg>
