<svg width="129" height="45" viewBox="0 0 129 45" fill="none" xmlns="http://www.w3.org/2000/svg">
<g clip-path="url(#clip0)" filter="url(#filter0_d)">
<g filter="url(#filter1_d)">
<path d="M124.5 31.9995V32.0442C124.474 34.4783 122.345 36.5 119.652 36.5H9.34881C6.63917 36.5002 4.5 34.4536 4.5 31.9995V5.00009C4.5 2.54645 6.63911 0.5 9.34881 0.5H119.652C122.361 0.5 124.5 2.54633 124.5 5.00009V31.9995Z" stroke="white"/>
</g>
<path d="M13.076 7.12354V32.1799L26.5922 19.6518L13.076 7.12354Z" fill="url(#paint0_linear)"/>
<path d="M30.2223 16.2865L24.7663 13.3419L13.076 7.03223V7.12334L26.5922 19.6516L30.2223 16.2865Z" fill="url(#paint1_linear)"/>
<path d="M13.076 32.1799V32.2711L24.7663 25.9611L30.2221 23.0166L26.5922 19.6519L13.076 32.1799Z" fill="url(#paint2_linear)"/>
<path d="M30.2219 16.2866L26.5918 19.6518L30.2217 23.0165L36.4569 19.6516L30.2219 16.2866Z" fill="url(#paint3_linear)"/>
<path d="M98.1678 24.5496C97.6601 24.5496 97.1969 24.462 96.7774 24.2871C96.358 24.112 96.0055 23.8426 95.7209 23.4795H95.6358C95.6925 23.905 95.7209 24.3083 95.7209 24.6894V27.6879H94.5409V17.1297H95.5009L95.6641 18.1271H95.7209C96.0247 17.7279 96.3781 17.4402 96.781 17.2629C97.1839 17.0855 97.6463 16.9968 98.1675 16.9968C99.2013 16.9968 99.9992 17.3272 100.561 17.9876C101.123 18.6479 101.404 19.5745 101.404 20.7665C101.404 21.9633 101.118 22.8928 100.547 23.556C99.9759 24.2185 99.1829 24.5496 98.1678 24.5496ZM97.997 17.9343C97.2004 17.9343 96.6244 18.1406 96.2688 18.5526C95.9132 18.9648 95.7306 19.621 95.7209 20.5208V20.7665C95.7209 21.7906 95.9036 22.523 96.2688 22.9642C96.6341 23.4054 97.2198 23.6255 98.0253 23.6255C98.6991 23.6255 99.2267 23.3709 99.6085 22.8612C99.9898 22.3517 100.181 21.6491 100.181 20.7532C100.181 19.845 99.9898 19.1475 99.6085 18.6623C99.2269 18.1766 98.6894 17.9343 97.997 17.9343ZM104.138 24.4165H102.957V14.0713H104.138V24.4165ZM110.925 24.4165L110.691 23.3793H110.634C110.245 23.8362 109.857 24.1456 109.471 24.3068C109.084 24.4689 108.602 24.5496 108.024 24.5496C107.251 24.5496 106.645 24.3634 106.206 23.9912C105.768 23.619 105.548 23.0896 105.548 22.4023C105.548 20.931 106.807 20.1596 109.325 20.0884L110.648 20.0484V19.5964C110.648 19.0245 110.517 18.6021 110.253 18.3299C109.991 18.057 109.569 17.9208 108.991 17.9208C108.341 17.9208 107.606 18.107 106.786 18.4792L106.423 17.6348C106.808 17.4398 107.228 17.287 107.686 17.1762C108.144 17.0654 108.602 17.0099 109.062 17.0099C109.992 17.0099 110.68 17.2025 111.128 17.5882C111.576 17.9739 111.8 18.5922 111.8 19.4434V24.4163H110.925V24.4165H110.925ZM108.258 23.6389C108.993 23.6389 109.57 23.4505 109.99 23.0739C110.409 22.6973 110.62 22.1696 110.62 21.4912V20.833L109.438 20.8793C108.5 20.9109 107.823 21.0467 107.408 21.2888C106.993 21.5303 106.786 21.906 106.786 22.4158C106.786 22.8145 106.915 23.1183 107.173 23.3262C107.432 23.5348 107.793 23.6389 108.258 23.6389ZM112.486 17.1297H113.751L115.458 21.2853C115.833 22.234 116.065 22.9187 116.156 23.3399H116.213C116.274 23.1135 116.404 22.7271 116.6 22.1791C116.797 21.6316 117.441 19.9489 118.531 17.1297H119.798L116.447 25.4273C116.116 26.2473 115.728 26.8291 115.284 27.1732C114.841 27.5165 114.297 27.6879 113.652 27.6879C113.292 27.6879 112.936 27.6503 112.585 27.5751V26.6909C112.846 26.744 113.138 26.7708 113.46 26.7708C114.271 26.7708 114.849 26.3453 115.196 25.4941L115.629 24.4571L112.486 17.1297ZM76.2972 17.8069C76.6719 18.0968 77.4545 18.7058 77.4545 19.8649C77.4545 20.992 76.7696 21.5265 76.0847 22.0288C75.8728 22.2267 75.6282 22.4407 75.6282 22.7764C75.6282 23.111 75.8725 23.2942 76.0526 23.4315L76.6397 23.8574C77.357 24.4215 78.0085 24.9401 78.0085 25.9921C78.0085 27.4247 76.5248 28.8721 73.7209 28.8721C71.3565 28.8721 70.2157 27.8208 70.2157 26.6923C70.2157 26.1438 70.5079 25.3669 71.4712 24.8329C72.4813 24.2537 73.8518 24.1783 74.5851 24.1314C74.3562 23.8574 74.0959 23.5677 74.0959 23.096C74.0959 22.8373 74.1778 22.6847 74.2589 22.5009C74.0789 22.5164 73.8998 22.5317 73.7366 22.5317C72.0089 22.5317 71.0307 21.3275 71.0307 20.1393C71.0307 19.4381 71.3735 18.6603 72.0738 18.097C73.0035 17.3808 74.112 17.2584 74.9933 17.2584H78.3511L77.3076 17.8071H76.2972V17.8069H76.2972ZM75.1392 24.5744C75.0088 24.5584 74.927 24.5584 74.7647 24.5584C74.618 24.5584 73.7363 24.5896 73.0524 24.8035C72.6938 24.9244 71.65 25.2902 71.65 26.3729C71.65 27.4546 72.7756 28.233 74.5203 28.233C76.0845 28.233 76.917 27.5304 76.917 26.5863C76.917 25.8075 76.3788 25.3977 75.1392 24.5744ZM75.6123 21.678C75.9868 21.3271 76.019 20.8399 76.019 20.5652C76.019 19.4681 75.3182 17.7611 73.9653 17.7611C73.5409 17.7611 73.0848 17.959 72.8239 18.2642C72.5471 18.5842 72.4647 18.9953 72.4647 19.3921C72.4647 20.4131 73.1006 22.1051 74.5035 22.1051C74.9111 22.1051 75.3504 21.9222 75.6123 21.678ZM66.0327 24.3304C63.4449 24.3304 62.0612 22.4434 62.0612 20.7388C62.0612 18.7452 63.8026 17.0417 66.2778 17.0417C68.6695 17.0417 70.1672 18.791 70.1672 20.6327C70.1674 22.4275 68.6868 24.3304 66.0327 24.3304ZM68.0672 23.098C68.4585 22.6106 68.5562 22.0022 68.5562 21.4083C68.5562 20.0688 67.8725 17.5128 65.8538 17.5128C65.3169 17.5128 64.7798 17.7109 64.3893 18.0311C63.7543 18.563 63.6398 19.2328 63.6398 19.8879C63.6398 21.3932 64.4375 23.8729 66.4077 23.8729C67.0424 23.8729 67.6936 23.5843 68.0672 23.098ZM57.2098 24.3304C54.6215 24.3304 53.2376 22.4434 53.2376 20.7388C53.2376 18.7452 54.9797 17.0417 57.4542 17.0417C59.8466 17.0417 61.3441 18.791 61.3441 20.6327C61.3444 22.4275 59.8634 24.3304 57.2098 24.3304ZM59.2448 23.098C59.6354 22.6106 59.7333 22.0022 59.7333 21.4083C59.7333 20.0688 59.0492 17.5128 57.0305 17.5128C56.4937 17.5128 55.9563 17.7109 55.5659 18.0311C54.931 18.563 54.8172 19.2328 54.8172 19.8879C54.8172 21.3932 55.6144 23.8729 57.5848 23.8729C58.2198 23.8729 58.8706 23.5843 59.2448 23.098ZM51.9942 24.0918L49.6536 24.5967C48.704 24.7347 47.8533 24.8561 46.9536 24.8561C42.4361 24.8561 40.7184 21.7503 40.7184 19.3177C40.7184 16.3502 43.1565 13.5972 47.3303 13.5972C48.2143 13.5972 49.0646 13.7192 49.8336 13.9183C51.0609 14.2396 51.6337 14.637 51.994 14.8668L50.6351 16.0753L50.0626 16.1972L50.4717 15.585C49.9155 15.0806 48.8999 14.1476 46.9695 14.1476C44.3836 14.1476 42.4357 15.9842 42.4357 18.6612C42.4357 21.5365 44.6618 24.2444 48.2287 24.2444C49.2772 24.2444 49.8161 24.0458 50.3075 23.8618V21.3994L47.8367 21.5217L49.1454 20.8631H52.6152L52.1901 21.2455C52.0747 21.3377 52.0588 21.3687 52.0262 21.4899C52.0091 21.6278 51.9938 22.0719 51.9938 22.2247V24.0918H51.9942V24.0918Z" fill="#F9F9F9"/>
<path d="M81.4694 23.6515C80.9291 23.6055 80.816 23.5142 80.816 22.9169V14.2582C80.8193 14.2252 80.8214 14.1914 80.8247 14.1595C80.8907 13.6244 81.0542 13.5326 81.5621 13.2568H79.221L77.9932 13.8077H79.2444V13.8146L79.2435 13.809V23.2539C79.2435 23.5593 79.1789 23.6058 78.802 24.0642H81.6991L82.3047 23.7285C82.0268 23.6969 81.7481 23.6821 81.4694 23.6515ZM88.129 23.7922C87.9509 23.8835 87.772 23.9903 87.5939 24.0657C87.0566 24.2935 86.5042 24.3546 86.0157 24.3546C85.4969 24.3546 84.6835 24.3232 83.8538 23.7617C82.7008 23.0014 82.1969 21.6949 82.1969 20.5557C82.1969 18.2012 84.2447 17.0466 85.9187 17.0466C86.504 17.0466 87.1061 17.183 87.5936 17.4723C88.4056 17.9728 88.6168 18.626 88.7299 18.9756L84.9114 20.4195L83.6596 20.5106C84.0654 22.4401 85.4631 23.5635 87.0076 23.5635C87.8364 23.5635 88.438 23.2906 88.9904 23.0328L88.129 23.7922ZM86.6017 19.264C86.9099 19.1581 87.0725 19.0665 87.0725 18.854C87.0725 18.2468 86.3414 17.5475 85.463 17.5475C84.8122 17.5475 83.5941 18.0188 83.5941 19.6592C83.5941 19.9175 83.6267 20.1909 83.6435 20.4653L86.6017 19.264ZM89.6977 17.1505V18.153H89.5674V17.1505H89.2125V17.0466H90.0524V17.1505H89.6977ZM91.1598 18.153V17.1412H91.1539L90.8236 18.153H90.7217L90.3886 17.1412H90.3843V18.153H90.266V17.0466H90.4687L90.7701 17.9409H90.7744L91.0713 17.0466H91.2769V18.153H91.1598Z" fill="#F9F9F9"/>
<path d="M43.9689 10.6182H43.1556C43.1556 10.5136 43.0785 10.2175 42.9242 9.72968H41.7501C41.5909 10.2096 41.5112 10.5057 41.5112 10.6182H40.7464C40.7464 10.5565 40.9442 10.0497 41.3397 9.09788C41.7352 8.14608 41.933 7.62173 41.933 7.52533H42.8937C42.8937 7.61555 43.0728 8.13214 43.4312 9.07532C43.7896 10.0185 43.9689 10.5327 43.9689 10.6182ZM42.7948 9.2759C42.505 8.45875 42.3603 8.01693 42.3603 7.95035H42.3196C42.3196 8.01206 42.1696 8.45389 41.8699 9.2759H42.7948ZM47.2459 10.6182H46.6182C46.6182 10.5532 46.3852 10.2104 45.9194 9.5897C45.4316 8.93556 45.1537 8.48841 45.086 8.2476H45.0453C45.0877 8.59433 45.109 8.90792 45.109 9.18834C45.109 9.57955 45.1208 10.0563 45.1445 10.6185H44.5192C44.5445 10.1275 44.5573 9.58839 44.5573 9.00081C44.5573 8.42276 44.5445 7.93092 44.5192 7.52557H45.2738C45.2738 7.6096 45.483 7.94463 45.9015 8.53044C46.3469 9.15274 46.6029 9.5749 46.6689 9.79671H46.707C46.6663 9.44354 46.646 9.12685 46.646 8.84646C46.646 8.41746 46.6341 7.97692 46.6105 7.52557H47.2459C47.222 7.91832 47.2104 8.41014 47.2104 9.00081C47.2101 9.59589 47.222 10.135 47.2459 10.6182ZM50.929 8.96477C50.929 9.41455 50.7748 9.80732 50.4665 10.143C50.158 10.4789 49.726 10.6466 49.1703 10.6466C48.9196 10.6466 48.5739 10.637 48.1335 10.618C48.1554 10.1397 48.1666 9.60031 48.1666 9.00037C48.1666 8.42407 48.1555 7.93225 48.1335 7.52511H48.5782C48.6511 7.52511 48.7594 7.52267 48.9035 7.51803C49.0473 7.51339 49.1415 7.51095 49.1855 7.51095C49.797 7.51095 50.2403 7.65359 50.5159 7.93864C50.7913 8.2237 50.929 8.56559 50.929 8.96477ZM50.2353 9.0669C50.2353 8.76283 50.1405 8.50674 49.9508 8.29821C49.761 8.09011 49.4712 7.98597 49.0816 7.98597C49.0088 7.98597 48.9089 7.99305 48.7816 8.00742C48.7984 8.3243 48.8069 8.65513 48.8069 9.00035C48.8069 9.37895 48.8155 9.75423 48.8322 10.1264C48.941 10.1469 49.0516 10.1573 49.1625 10.1574C49.5268 10.1574 49.7965 10.0515 49.9718 9.84003C50.1471 9.62862 50.2353 9.37097 50.2353 9.0669ZM54.3254 10.6182H53.5731C53.3765 10.0576 53.2258 9.71155 53.1208 9.58019C53.0158 9.44861 52.8464 9.38293 52.6126 9.38293C52.5142 9.38293 52.4203 9.38381 52.3307 9.38536C52.3307 9.79251 52.3382 10.2034 52.3536 10.6182H51.6472C51.6692 10.1399 51.6803 9.60053 51.6803 9.00057C51.6803 8.42429 51.6692 7.93245 51.6472 7.52533H52.0867C52.1376 7.52533 52.2438 7.5229 52.4057 7.51825C52.5675 7.51361 52.717 7.51116 52.8542 7.51116C53.6318 7.51116 54.0207 7.75972 54.0207 8.25709C54.0207 8.65139 53.7988 8.92605 53.355 9.08151V9.11712C53.526 9.16134 53.676 9.28629 53.8047 9.49107C53.9331 9.69607 54.1068 10.0718 54.3254 10.6182ZM53.3725 8.43266C53.3725 8.11753 53.1556 7.95987 52.7219 7.95987C52.5627 7.95987 52.4219 7.97093 52.3001 7.99305C52.3188 8.23851 52.328 8.55851 52.328 8.95281C52.4213 8.95612 52.5 8.95745 52.5644 8.95745C53.103 8.95767 53.3725 8.78275 53.3725 8.43266ZM57.968 9.01471C57.968 9.5008 57.8088 9.90392 57.4902 10.2239C57.1715 10.5437 56.7776 10.7038 56.3085 10.7038C55.8612 10.7038 55.4867 10.557 55.1853 10.2631C54.8837 9.96938 54.733 9.59589 54.733 9.14319C54.733 8.65712 54.8922 8.25398 55.2109 7.93398C55.5293 7.61421 55.9232 7.4541 56.3925 7.4541C56.8398 7.4541 57.2141 7.6005 57.5157 7.89351C57.8174 8.18655 57.968 8.56006 57.968 9.01471ZM57.2669 9.0835C57.2669 8.75245 57.1762 8.48398 56.995 8.2781C56.8136 8.07222 56.59 7.96938 56.3241 7.96938C56.0767 7.96938 55.8666 8.0731 55.6939 8.28053C55.5212 8.48796 55.4344 8.75004 55.4344 9.06692C55.4344 9.3962 55.5255 9.66422 55.7076 9.87101C55.8898 10.0778 56.1129 10.1811 56.3774 10.1811C56.6246 10.1811 56.8349 10.0769 57.0076 9.86856C57.1803 9.66047 57.2669 9.39861 57.2669 9.0835ZM59.405 10.6182H58.6858C58.7078 10.1273 58.7189 9.58815 58.7189 9.00057C58.7189 8.42251 58.7078 7.93068 58.6858 7.52533H59.405C59.383 7.92449 59.3718 8.41609 59.3718 9.00057C59.3718 9.59744 59.383 10.1368 59.405 10.6182ZM63.0883 8.96477C63.0883 9.41455 62.9341 9.80732 62.6258 10.143C62.3174 10.4789 61.8854 10.6466 61.3297 10.6466C61.0789 10.6466 60.7333 10.637 60.2928 10.618C60.3148 10.1397 60.3259 9.60031 60.3259 9.00037C60.3259 8.42407 60.3148 7.93225 60.2928 7.52511H60.7375C60.8104 7.52511 60.9188 7.52267 61.0628 7.51803C61.2067 7.51339 61.3008 7.51095 61.3448 7.51095C61.9564 7.51095 62.3997 7.65359 62.6753 7.93864C62.9506 8.2237 63.0883 8.56559 63.0883 8.96477ZM62.3947 9.0669C62.3947 8.76283 62.2998 8.50674 62.1101 8.29821C61.9204 8.09011 61.6306 7.98597 61.2409 7.98597C61.1681 7.98597 61.0682 7.99305 60.941 8.00742C60.9578 8.3243 60.9663 8.65513 60.9663 9.00035C60.9663 9.37895 60.9748 9.75423 60.9916 10.1264C61.1003 10.1469 61.2109 10.1573 61.3218 10.1574C61.6861 10.1574 61.9558 10.0515 62.1311 9.84003C62.3065 9.62862 62.3947 9.37097 62.3947 9.0669ZM67.9749 10.6182H67.1615C67.1615 10.5136 67.0844 10.2175 66.9299 9.72968H65.7559C65.5966 10.2096 65.5169 10.5057 65.5169 10.6182H64.7523C64.7523 10.5565 64.9501 10.0497 65.3456 9.09788C65.7412 8.14608 65.939 7.62173 65.939 7.52533H66.8997C66.8997 7.61555 67.079 8.13214 67.4371 9.07532C67.7953 10.0185 67.9749 10.5327 67.9749 10.6182ZM66.8008 9.2759C66.511 8.45875 66.3659 8.01693 66.3659 7.95035H66.3253C66.3253 8.01206 66.1755 8.45389 65.8758 9.2759H66.8008ZM70.939 8.33515C70.939 8.71375 70.7886 8.99328 70.4879 9.17373C70.1872 9.35418 69.8184 9.44461 69.3812 9.44461C69.3015 9.44461 69.245 9.44306 69.2109 9.43997C69.2109 9.73785 69.2201 10.1304 69.2388 10.6182H68.5246C68.5466 10.1607 68.5577 9.6213 68.5577 9.00057C68.5577 8.43047 68.5466 7.93864 68.5246 7.52533H68.9667C69.0294 7.52533 69.1496 7.5229 69.3275 7.51825C69.5054 7.51361 69.6594 7.51116 69.79 7.51116C70.1117 7.51116 70.3838 7.57927 70.6057 7.71549C70.8276 7.85174 70.939 8.05806 70.939 8.33515ZM70.2835 8.46585C70.2835 8.12704 70.0429 7.95744 69.5618 7.95744C69.4413 7.95744 69.3143 7.96936 69.1806 7.99305C69.1993 8.29247 69.2086 8.63126 69.2086 9.00986C69.2509 9.01318 69.3001 9.01451 69.3559 9.01451C69.9743 9.01471 70.2835 8.83184 70.2835 8.46585ZM73.987 8.33515C73.987 8.71375 73.8365 8.99328 73.5361 9.17373C73.2354 9.35418 72.8664 9.44461 72.4292 9.44461C72.3495 9.44461 72.2929 9.44306 72.2589 9.43997C72.2589 9.73785 72.2681 10.1304 72.2868 10.6182H71.5726C71.5946 10.1607 71.6057 9.6213 71.6057 9.00057C71.6057 8.43047 71.5946 7.93864 71.5726 7.52533H72.0147C72.0774 7.52533 72.1976 7.5229 72.3755 7.51825C72.5534 7.51361 72.7074 7.51116 72.838 7.51116C73.1597 7.51116 73.4318 7.57927 73.6537 7.71549C73.8755 7.85174 73.987 8.05806 73.987 8.33515ZM73.3315 8.46585C73.3315 8.12704 73.0909 7.95744 72.6097 7.95744C72.4893 7.95744 72.3622 7.96936 72.2286 7.99305C72.2473 8.29247 72.2565 8.63126 72.2565 9.00986C72.2988 9.01318 72.3481 9.01451 72.4039 9.01451C73.0223 9.01471 73.3315 8.83184 73.3315 8.46585ZM78.9703 9.01471C78.9703 9.5008 78.8111 9.90392 78.4924 10.2239C78.1738 10.5439 77.7799 10.7038 77.3108 10.7038C76.8634 10.7038 76.4889 10.557 76.1876 10.2631C75.8862 9.96938 75.7352 9.59589 75.7352 9.14319C75.7352 8.65712 75.8945 8.25398 76.2131 7.93398C76.5317 7.61399 76.9256 7.4541 77.3947 7.4541C77.8421 7.4541 78.2166 7.6005 78.518 7.89351C78.8194 8.18655 78.9703 8.56006 78.9703 9.01471ZM78.2689 9.0835C78.2689 8.75245 78.1782 8.48398 77.997 8.2781C77.8159 8.07222 77.592 7.96938 77.3262 7.96938C77.0787 7.96938 76.8686 8.0731 76.6959 8.28053C76.5232 8.48796 76.4366 8.75004 76.4366 9.06692C76.4366 9.3962 76.5277 9.66422 76.7099 9.87101C76.892 10.0778 77.1151 10.1811 77.3794 10.1811C77.6268 10.1811 77.8369 10.0769 78.0096 9.86858C78.1825 9.66047 78.2689 9.39861 78.2689 9.0835ZM82.4147 10.6182H81.7871C81.7871 10.5532 81.5543 10.2104 81.0883 9.5897C80.6005 8.93556 80.3225 8.48841 80.2548 8.2476H80.2142C80.2565 8.59433 80.2778 8.90792 80.2778 9.18834C80.2778 9.57955 80.2896 10.0563 80.3133 10.6185H79.688C79.7134 10.1275 79.7261 9.58839 79.7261 9.00081C79.7261 8.42276 79.7134 7.93092 79.688 7.52557H80.4427C80.4427 7.6096 80.6521 7.94463 81.0703 8.53044C81.516 9.15274 81.7717 9.5749 81.8378 9.79671H81.8758C81.8352 9.44354 81.8148 9.12685 81.8148 8.84646C81.8148 8.41746 81.803 7.97692 81.7793 7.52557H82.4147C82.3908 7.91832 82.3792 8.41014 82.3792 9.00081C82.3792 9.59589 82.3911 10.135 82.4147 10.6182Z" fill="#F9F9FA"/>
</g>
<defs>
<filter id="filter0_d" x="0" y="0" width="129" height="45" filterUnits="userSpaceOnUse" color-interpolation-filters="sRGB">
<feFlood flood-opacity="0" result="BackgroundImageFix"/>
<feColorMatrix in="SourceAlpha" type="matrix" values="0 0 0 0 0 0 0 0 0 0 0 0 0 0 0 0 0 0 127 0"/>
<feOffset dy="4"/>
<feGaussianBlur stdDeviation="2"/>
<feColorMatrix type="matrix" values="0 0 0 0 0 0 0 0 0 0 0 0 0 0 0 0 0 0 0.25 0"/>
<feBlend mode="normal" in2="BackgroundImageFix" result="effect1_dropShadow"/>
<feBlend mode="normal" in="SourceGraphic" in2="effect1_dropShadow" result="shape"/>
</filter>
<filter id="filter1_d" x="0" y="0" width="129" height="45" filterUnits="userSpaceOnUse" color-interpolation-filters="sRGB">
<feFlood flood-opacity="0" result="BackgroundImageFix"/>
<feColorMatrix in="SourceAlpha" type="matrix" values="0 0 0 0 0 0 0 0 0 0 0 0 0 0 0 0 0 0 127 0"/>
<feOffset dy="4"/>
<feGaussianBlur stdDeviation="2"/>
<feColorMatrix type="matrix" values="0 0 0 0 0 0 0 0 0 0 0 0 0 0 0 0 0 0 0.25 0"/>
<feBlend mode="normal" in2="BackgroundImageFix" result="effect1_dropShadow"/>
<feBlend mode="normal" in="SourceGraphic" in2="effect1_dropShadow" result="shape"/>
</filter>
<linearGradient id="paint0_linear" x1="19.8341" y1="7.12357" x2="19.8341" y2="32.18" gradientUnits="userSpaceOnUse">
<stop stop-color="#257CB0"/>
<stop offset="0.286" stop-color="#4A93B5"/>
<stop offset="0.767" stop-color="#78BCBB"/>
<stop offset="1" stop-color="#89CFBD"/>
</linearGradient>
<linearGradient id="paint1_linear" x1="13.0763" y1="13.3418" x2="30.2225" y2="13.3418" gradientUnits="userSpaceOnUse">
<stop stop-color="#52C1AD"/>
<stop offset="1" stop-color="#DEE89A"/>
</linearGradient>
<linearGradient id="paint2_linear" x1="21.649" y1="19.6519" x2="21.649" y2="32.2711" gradientUnits="userSpaceOnUse">
<stop stop-color="#EC413D"/>
<stop offset="0.167" stop-color="#DA4452"/>
<stop offset="0.575" stop-color="#B0487A"/>
<stop offset="0.862" stop-color="#954A92"/>
<stop offset="1" stop-color="#8A4A9D"/>
</linearGradient>
<linearGradient id="paint3_linear" x1="31.5245" y1="16.2867" x2="31.5245" y2="23.0163" gradientUnits="userSpaceOnUse">
<stop stop-color="#F58879"/>
<stop offset="0.119" stop-color="#F69079"/>
<stop offset="0.713" stop-color="#FCB877"/>
<stop offset="1" stop-color="#FEC874"/>
</linearGradient>
<clipPath id="clip0">
<rect width="121" height="37" fill="white" transform="translate(4)"/>
</clipPath>
</defs>
</svg>
