<svg width="40" height="40" viewBox="0 0 40 40" fill="none" xmlns="http://www.w3.org/2000/svg">
<path d="M39.3333 37V11H31.3333V37H29.3333V16.3333H21.3333V37H19.3333V21.6667H11.3333V37H9.33333V27.6667H1.33333V37H0.666667C0.298667 37 0 37.298 0 37.6667C0 38.0353 0.298667 38.3333 0.666667 38.3333H1.33333H9.33333H11.3333H19.3333H21.3333H29.3333H31.3333H39.3333C39.7013 38.3333 40 38.0353 40 37.6667C40 37.298 39.7013 37 39.3333 37ZM2.66667 37V29H8V37H2.66667ZM12.6667 37V23H18V37H12.6667ZM22.6667 37V17.6667H28V37H22.6667ZM32.6667 37V12.3333H38V37H32.6667Z" fill="#ADADAD"/>
<path d="M5.35304 18.5533C5.46571 18.5533 5.58104 18.5247 5.68571 18.464L29.865 4.50401L28.3517 7.83067C28.199 8.16601 28.347 8.56134 28.6824 8.71334C28.7717 8.75467 28.8657 8.77334 28.9584 8.77334C29.2117 8.77334 29.4537 8.62801 29.5657 8.38267L31.9404 3.16267C31.9477 3.14601 31.9464 3.12801 31.9524 3.11067C31.965 3.07534 31.975 3.04134 31.9817 3.00401C31.985 2.98534 31.9957 2.97001 31.997 2.95067C31.9977 2.94267 31.9944 2.93601 31.995 2.92801C31.9964 2.90267 31.9937 2.87934 31.9924 2.85401C31.9904 2.81734 31.9844 2.78267 31.9764 2.74601C31.971 2.72067 31.9697 2.69467 31.961 2.67001C31.953 2.64601 31.939 2.62601 31.9284 2.60267C31.9197 2.58734 31.9197 2.56934 31.9104 2.55334C31.901 2.53734 31.885 2.52801 31.8744 2.51267C31.8604 2.49201 31.8497 2.47001 31.833 2.45134C31.8157 2.43134 31.7937 2.41734 31.7737 2.39934C31.7464 2.37467 31.719 2.35201 31.6884 2.33201C31.6677 2.31867 31.649 2.30401 31.6264 2.29267C31.619 2.28934 31.615 2.28267 31.6077 2.27934C31.591 2.27201 31.573 2.27334 31.5564 2.26734C31.5197 2.25401 31.4837 2.24467 31.4457 2.23801C31.4284 2.23467 31.4144 2.22467 31.3964 2.22334L25.6884 1.67001C25.3184 1.63267 24.9957 1.90334 24.9604 2.26867C24.9244 2.63534 25.193 2.96134 25.559 2.99667L29.1964 3.34934L5.01904 17.3093C4.69971 17.4933 4.59104 17.9013 4.77504 18.22C4.89837 18.434 5.12237 18.5533 5.35304 18.5533Z" fill="#ADADAD"/>
</svg>
