<svg width="20" height="20" viewBox="0 0 20 20" fill="none" xmlns="http://www.w3.org/2000/svg">
<path d="M2.3112 0.000854492H15.6899C16.9609 0.000854492 18 1.15579 18 2.56805V17.4333C18 18.8451 16.9609 19.9993 15.6899 19.9993H2.3112C1.04016 19.9993 0 18.8451 0 17.4333V2.56805C0 1.15579 1.04016 0.000854492 2.3112 0.000854492ZM13.1128 2.22199C12.6665 2.22199 12.3025 2.62805 12.3025 3.12365V5.27792C12.3025 5.77372 12.6665 6.17885 13.1128 6.17885H15.1469C15.5925 6.17885 15.9573 5.77372 15.9573 5.27792V3.12365C15.9573 2.62805 15.5925 2.22199 15.1469 2.22199H13.1128ZM15.965 8.45792H14.3813C14.5315 9.00292 14.6129 9.57765 14.6129 10.1752C14.6129 13.5007 12.1069 16.1979 9.01692 16.1979C5.9277 16.1979 3.42168 13.5007 3.42168 10.1752C3.42168 9.57765 3.50388 9.00292 3.65334 8.45792H2.001V16.9067C2.001 17.3443 2.32254 17.7002 2.71596 17.7002H15.2504C15.6442 17.7002 15.965 17.3443 15.965 16.9067V8.45792ZM9.01698 6.06525C7.02138 6.06525 5.40258 7.80712 5.40258 9.95779C5.40258 12.1063 7.02138 13.8495 9.01698 13.8495C11.0137 13.8495 12.6325 12.1063 12.6325 9.95779C12.6325 7.80705 11.0137 6.06525 9.01698 6.06525Z" fill="white"/>
</svg>
