<svg width="24" height="24" viewBox="0 0 24 24" fill="none" xmlns="http://www.w3.org/2000/svg">
<g clip-path="url(#clip0)">
<path d="M8.18141 23.8567L19.6921 12.3463C19.8755 12.1629 19.8755 11.8381 19.6921 11.6547L8.18093 0.143294C8.08923 0.0515956 7.96476 0 7.83516 0C7.70556 0 7.5811 0.0515956 7.4894 0.143294L4.3137 3.31899C4.21809 3.4146 4.17041 3.53955 4.17041 3.66475C4.17041 3.78995 4.21809 3.9149 4.3137 4.01052L12.3034 12.0002L4.31395 19.9902C4.13031 20.1736 4.13055 20.4984 4.31395 20.6818L7.48964 23.8567C7.68086 24.0479 7.99044 24.0479 8.18141 23.8567Z" fill="#4F4F4F"/>
</g>
<defs>
<clipPath id="clip0">
<rect width="24" height="24" fill="white"/>
</clipPath>
</defs>
</svg>
