<svg width="60" height="60" viewBox="0 0 60 60" fill="none" xmlns="http://www.w3.org/2000/svg">
<path d="M59 48H58.0028C58.6037 47.1691 58.9406 46.1339 58.9001 45V28C58.9001 25.2 56.7001 22.9999 53.9 22.9999H50C50 22.3999 49.6001 22 49.0001 22H43.0001C42.4001 22 42.0001 22.3999 42.0001 22.9999H41.0028C41.6038 22.1691 41.9407 21.1338 41.9002 19.9999V6C41.9002 3.20004 39.7002 0.999961 36.9001 0.999961H34.0001C34.0001 0.399961 33.6001 0 33.0001 0H27.0001C26.4001 0 26.0002 0.399961 26.0002 0.999961H23.0002C20.2002 0.999961 18.0001 3.19992 18.0001 6V17H13.0001C12.4001 17 12.0001 17.4 12.0001 18H6C3.20004 18 0.999961 20.2 0.999961 23V45C0.999961 46.1339 1.3609 47.1691 1.97613 48H0.999961C0.399961 48 0 48.4 0 49V55C0 55.6 0.399961 55.9999 0.999961 55.9999H1.99992V58.9999C1.99992 59.5999 2.39988 59.9999 2.99988 59.9999H10.9999C11.5999 59.9999 11.9999 59.5999 11.9999 58.9999V55.9999H24.9998V58.9999C24.9998 59.5999 25.3998 59.9999 25.9998 59.9999H33.9998C34.5998 59.9999 34.9998 59.5999 34.9998 58.9999V55.9999H48V58.9999C48 59.5999 48.4 59.9999 49 59.9999H57C57.6 59.9999 58 59.5999 58 58.9999V55.9999H58.9999C59.5999 55.9999 59.9999 55.6 59.9999 55V49C60 48.4 59.6 48 59 48ZM47.9 24V29.1L46.5 28.1C46.2 27.9 45.7 27.9 45.4 28.1L43.9999 29.1V24H47.9ZM42.6 31.8C42.9 32 43.3 32 43.6 31.8L46 30.2L48.4999 31.9001C48.7999 32.1001 49.1999 32.1001 49.4999 31.9001C49.7999 31.7 49.9999 31.4 49.9999 31.0001V25.0001H54C55.7 25.0001 57 26.3 57 28.0001V45C57 46.7 55.7 48 54 48H34.0238C34.5997 47.2223 34.9519 46.2652 34.9946 45.216C34.998 45.144 34.9999 45.072 34.9999 45V25H37H42V31C42 31.4 42.2 31.7 42.6 31.8ZM31.9 2.00004V7.10004L30.4999 6.10008C30.1999 5.90004 29.6999 5.90004 29.3999 6.10008L27.9998 7.10004V2.00004H31.9ZM20 6C20 4.29996 21.3 3 23 3H26V9C26 9.39996 26.2001 9.69996 26.6 9.80004C26.9 10.0001 27.3 10.0001 27.6 9.80004L30 8.19996L32.5 9.9C32.8 10.1 33.1999 10.1 33.4999 9.9C33.7999 9.69996 34 9.39996 34 9V3H37C38.7 3 40 4.29996 40 6V20C40 21.7001 38.7 23 37 23H34.9999C34.9999 20.2001 32.8 18 29.9999 18H23.9999C23.9999 17.4 23.5999 17 22.9999 17H19.9999L20 6ZM19 19H22V26.8999L18.6 24.1999C18.3 23.8999 17.8 23.8999 17.4 24.1999L14 26.8999V19H19ZM3 45V23C3 21.3 4.29996 20 6 20H12V29C12 29.4 12.2 29.7 12.5 29.9C12.9 30.1001 13.3001 30 13.6001 29.8001L18.0001 26.3L22.3001 29.8001C22.5319 29.9546 22.8829 30.0487 23.1689 29.9916C23.2537 29.981 23.343 29.957 23.4 29.9C23.8 29.7 24 29.4 24 29V20H30C31.7 20 33 21.3 33 23V24V45C33 46.7 31.7 48 30 48H6C4.29996 48 3 46.7 3 45ZM9.99996 58H3.99996V55.9999H9.99996V58ZM33 58H27V55.9999H33V58ZM56 58H50V55.9999H56V58ZM58 54H57H49H34H25.9999H10.9999H3H2.00004V50H6H30H54H58V54Z" fill="#455059"/>
<path d="M30.9979 45C30.9979 44.4 30.598 44 29.998 44H25.998C25.398 44 24.998 44.4 24.998 45C24.998 45.6 25.398 45.9999 25.998 45.9999H29.998C30.598 45.9999 30.9979 45.6 30.9979 45Z" fill="#C9472C"/>
<path d="M31.0009 41.0001C31.0009 40.4001 30.6009 40.0001 30.0009 40.0001H24.0009C23.4009 40.0001 23.001 40.4001 23.001 41.0001C23.001 41.6001 23.4009 42 24.0009 42H30.0009C30.6009 42 31.0009 41.6001 31.0009 41.0001Z" fill="#C9472C"/>
<path d="M54.001 45H52.0009C51.4009 45 51.001 45.4 51.001 46C51.001 46.6 51.4009 46.9999 52.0009 46.9999H54.001C54.601 46.9999 55.0009 46.6 55.0009 46C55.0009 45.4 54.601 45 54.001 45Z" fill="#C9472C"/>
<path d="M50.0009 44H54.0009C54.6009 44 55.0009 43.6001 55.0009 43.0001C55.0009 42.4001 54.6009 42.0001 54.0009 42.0001H50.0009C49.4009 42.0001 49.001 42.4001 49.001 43.0001C49.001 43.6001 49.4009 44 50.0009 44Z" fill="#C9472C"/>
</svg>
