<svg width="24" height="24" viewBox="0 0 24 24" fill="none" xmlns="http://www.w3.org/2000/svg">
<path d="M5.63203 12.6562C5.24044 12.6562 4.92188 12.9748 4.92188 13.3664C4.92188 13.758 5.24044 14.0766 5.63203 14.0766C6.02363 14.0766 6.32812 13.758 6.32812 13.3664C6.32812 12.9749 6.02358 12.6562 5.63203 12.6562Z" fill="black"/>
<path d="M12.0469 0C10.1084 0 8.53125 1.57711 8.53125 3.51562C8.53125 5.45414 10.1084 7.03125 12.0469 7.03125C13.9854 7.03125 15.5625 5.45414 15.5625 3.51562C15.5625 1.57711 13.9854 0 12.0469 0ZM12.0469 5.625C10.8838 5.625 9.9375 4.67873 9.9375 3.51562C9.9375 2.35252 10.8838 1.40625 12.0469 1.40625C13.21 1.40625 14.1562 2.35252 14.1562 3.51562C14.1562 4.67873 13.21 5.625 12.0469 5.625Z" fill="black"/>
<path d="M14.8594 9.84375H9.23438C8.84606 9.84375 8.53125 10.1586 8.53125 10.5469C8.53125 10.9352 8.84606 11.25 9.23438 11.25H14.8594C15.2477 11.25 15.5625 10.9352 15.5625 10.5469C15.5625 10.1586 15.2477 9.84375 14.8594 9.84375Z" fill="black"/>
<path d="M23.1762 10.6676C22.9017 10.3929 22.4565 10.3929 22.1819 10.6675C21.9073 10.9421 21.9073 11.3873 22.1819 11.6619C22.4475 11.9275 22.5938 12.2806 22.5938 12.6562C22.5938 13.4317 21.9629 14.0625 21.1875 14.0625H21.1552C20.7988 10.1261 17.4809 7.03125 13.4531 7.03125H12.0469H9.9375C9.49013 7.03125 8.97745 7.08197 8.48156 7.17328C7.5503 6.18417 6.27572 5.625 4.92188 5.625C4.53356 5.625 4.21875 5.93981 4.21875 6.32812V9.49308C3.37678 10.3911 2.7608 11.4767 2.42531 12.6562H2.10938C0.946266 12.6562 0 13.6025 0 14.7656V16.2188C0 17.3819 0.946266 18.3234 2.10938 18.3234C2.35036 18.3234 2.68627 18.324 2.95336 18.3255C3.44292 19.2886 4.12491 20.1583 4.91878 20.822C4.92183 21.7543 4.92188 23.2795 4.92188 23.2969C4.92188 23.6852 5.23669 24 5.625 24H8.4375C8.82581 24 9.14062 23.6852 9.14062 23.2969V22.5573C9.40636 22.581 9.67889 22.5938 9.9375 22.5938H13.4531V23.2969C13.4531 23.6852 13.7679 24 14.1562 24H16.9688C17.3571 24 17.6719 23.6852 17.6719 23.2969C17.6719 23.2866 17.6719 22.372 17.6742 21.3406C18.6703 20.6869 19.5123 19.7903 20.1248 18.7273C20.7021 17.7255 21.0525 16.611 21.1551 15.4688H21.1875C22.7383 15.4688 24 14.2071 24 12.6563C24 11.9051 23.7075 11.1988 23.1762 10.6676ZM16.6197 20.3396C16.4032 20.465 16.2697 20.696 16.269 20.9461C16.2673 21.5519 16.2664 22.1517 16.266 22.5938H14.8594C14.8594 21.9346 14.8594 22.3349 14.8594 20.4844C14.8594 20.0961 14.5446 19.7812 14.1562 19.7812C13.7679 19.7812 13.4531 20.0961 13.4531 20.4844V21.1875H9.9375C9.67688 21.1875 9.40134 21.1724 9.14062 21.1449V20.4844C9.14062 20.0961 8.82581 19.7812 8.4375 19.7812C8.04919 19.7812 7.73438 20.0961 7.73438 20.4844C7.73438 21.727 7.73438 21.8019 7.73438 22.5938H6.32784C6.32742 21.9414 6.32639 20.9956 6.32367 20.4778C6.3225 20.2582 6.21877 20.0517 6.04327 19.9197C5.20411 19.2883 4.49442 18.3758 4.04494 17.3505C3.93722 17.1047 3.69909 16.9417 3.43106 16.9302C3.24487 16.9223 2.29739 16.9219 2.10938 16.9219C1.72167 16.9219 1.40625 16.6065 1.40625 16.2188V14.7656C1.40625 14.3779 1.72167 14.0625 2.10938 14.0625H2.95134C2.95214 14.0625 2.95289 14.0626 2.95369 14.0626C2.95481 14.0626 2.95589 14.0625 2.95702 14.0625C3.32925 14.0625 3.59194 13.8262 3.66511 13.5258C3.69291 13.4116 3.75023 13.1765 3.76355 13.0924C4.05581 12.0303 4.62638 11.0586 5.41584 10.2792C5.54967 10.1471 5.625 9.96689 5.625 9.77883V7.10358C6.42108 7.26961 7.14248 7.71548 7.66889 8.38209C7.83844 8.59683 8.11716 8.69367 8.38331 8.63039C8.89922 8.50781 9.4657 8.4375 9.9375 8.4375H13.4531C16.9425 8.4375 19.7812 11.2763 19.7812 14.7656C19.7812 17.0393 18.5402 19.2272 16.6197 20.3396Z" fill="black"/>
</svg>
