<svg width="40" height="40" viewBox="0 0 40 40" fill="none" xmlns="http://www.w3.org/2000/svg">
<g clip-path="url(#clip0)">
<path d="M9.639 17.2693C8.35233 17.2693 7.30566 18.316 7.30566 19.6027C7.30566 20.8893 8.35233 21.936 9.639 21.936C10.9257 21.936 11.9723 20.8893 11.9723 19.6027C11.9723 18.316 10.9257 17.2693 9.639 17.2693ZM9.639 20.6027C9.08766 20.6027 8.639 20.154 8.639 19.6027C8.639 19.0513 9.08766 18.6027 9.639 18.6027C10.1903 18.6027 10.639 19.0513 10.639 19.6027C10.639 20.154 10.1903 20.6027 9.639 20.6027Z" fill="#ADADAD"/>
<path d="M39.9777 21.936C39.9777 20.9127 39.5884 19.9807 38.9537 19.2727C39.0151 18.5013 38.8897 17.718 38.5671 16.996C38.4164 16.6593 38.0211 16.508 37.6864 16.66C37.3504 16.8107 37.1997 17.2047 37.3504 17.5407C37.4557 17.7767 37.5277 18.022 37.5757 18.2713C37.0857 18.0573 36.5464 17.9367 35.9784 17.9367C35.9391 17.9367 35.9051 17.9527 35.8671 17.9593C35.7924 17.954 35.7211 17.9367 35.6451 17.9367C35.4811 17.9367 35.3237 17.9593 35.1671 17.9847C33.9177 15.0153 31.7604 12.602 28.8757 10.9487C29.1551 10.1107 29.3057 9.22934 29.3057 8.334C29.3057 3.73867 25.5677 0.000671387 20.9724 0.000671387C16.3771 0.000671387 12.6391 3.73867 12.6391 8.334C12.6391 8.96067 12.7111 9.576 12.8451 10.1713C12.2504 10.366 11.7224 10.5533 11.3051 10.718C8.38175 9.55067 6.47841 9.14867 4.77641 9.338C4.37175 9.38267 4.05375 9.682 3.98508 10.082C3.91575 10.4873 4.11975 10.88 4.49175 11.0587C5.39708 11.4947 5.78241 12.5507 6.19041 13.6693C6.29241 13.95 6.39775 14.2367 6.51175 14.5173C4.77308 16.3173 4.45175 17.776 4.14041 19.9367H3.30041C1.21841 19.9367 0.0244141 21.418 0.0244141 24.0007V26.4053C0.0244141 29.034 1.24908 30.6033 3.30041 30.6033H3.71175C4.19975 31.838 4.92508 32.9653 5.83575 33.9793L4.91508 36.2807C4.58041 37.1173 4.68175 38.0627 5.18708 38.8087C5.69241 39.5547 6.53241 40 7.43375 40H11.9271C12.4951 40 12.9984 39.6593 13.2104 39.1313L13.4551 38.52C15.5824 39.144 17.9471 39.48 20.4671 39.48C22.5297 39.48 24.4564 39.218 26.2111 38.728L26.2137 38.738C26.4411 39.4927 27.1231 40 27.9117 40H31.9231C32.8791 40 33.7437 39.5527 34.2964 38.772C34.8491 37.9913 34.9831 37.0273 34.6644 36.1253L33.8837 33.9127C35.6497 31.7327 36.6457 29.0147 36.6457 25.9353C36.6457 25.9153 36.6437 25.8953 36.6437 25.8753C38.5324 25.558 39.9777 23.9147 39.9777 21.936ZM35.8891 22.578L35.7764 22.5867C35.7384 22.5893 35.7011 22.594 35.6451 22.6027C34.7264 22.6027 33.9784 21.8547 33.9784 20.936C33.9784 20.832 33.9911 20.7313 34.0091 20.6327C34.0144 20.6047 34.0217 20.5773 34.0277 20.55C34.0451 20.476 34.0677 20.4047 34.0944 20.3347C34.1037 20.3107 34.1124 20.286 34.1231 20.262C34.2024 20.084 34.3117 19.9227 34.4451 19.7833C34.4684 19.7593 34.4937 19.7367 34.5191 19.714C34.5624 19.674 34.6077 19.6367 34.6551 19.6013C34.6911 19.5747 34.7277 19.5487 34.7657 19.5247C34.8044 19.5007 34.8457 19.48 34.8864 19.4593C34.9324 19.436 34.9771 19.4107 35.0257 19.3907L35.0317 19.388C35.2217 19.3127 35.4277 19.268 35.6437 19.268C36.5624 19.268 37.3104 20.016 37.3104 20.9347C37.3111 21.7713 36.6917 22.458 35.8891 22.578ZM20.9724 1.33334C24.8324 1.33334 27.9724 4.47334 27.9724 8.33334C27.9724 9.17067 27.8211 9.97934 27.5424 10.7387L27.4391 10.9887C27.1084 11.788 26.6291 12.5267 26.0417 13.148C25.9591 13.1093 25.8724 13.0847 25.7891 13.048C25.5937 12.9633 25.3964 12.8867 25.1971 12.814C25.0251 12.7513 24.8544 12.6873 24.6804 12.6333C24.4917 12.576 24.3011 12.5313 24.1104 12.4847C23.7631 12.3993 23.4137 12.3327 23.0617 12.2833C22.8951 12.26 22.7284 12.2307 22.5611 12.2153C22.3531 12.196 22.1451 12.192 21.9357 12.1853C21.7651 12.18 21.5951 12.1747 21.4244 12.1773C21.2244 12.1807 21.0251 12.1913 20.8257 12.206C20.6364 12.22 20.4484 12.2407 20.2597 12.2647C20.0797 12.288 19.9004 12.3093 19.7217 12.342C19.4664 12.388 19.2137 12.4493 18.9611 12.514C18.8511 12.5427 18.7391 12.5627 18.6297 12.5947C18.2631 12.702 17.9017 12.8327 17.5464 12.9813C17.4651 13.0153 17.3864 13.0567 17.3057 13.0927C17.0204 13.22 16.7391 13.3593 16.4637 13.514C16.4244 13.536 16.3831 13.5513 16.3444 13.574C16.1224 13.378 15.9157 13.1667 15.7217 12.9453C15.6951 12.9153 15.6717 12.8833 15.6457 12.8533C15.4717 12.648 15.3077 12.4347 15.1584 12.2107C15.1471 12.1933 15.1357 12.1767 15.1244 12.1593C14.7944 11.6533 14.5271 11.104 14.3337 10.5193L14.2611 10.296C14.0771 9.66667 13.9731 9.00867 13.9731 8.33267C13.9724 4.47334 17.1124 1.33334 20.9724 1.33334ZM11.9271 38.6667H7.43375C6.96841 38.6667 6.55241 38.4453 6.29175 38.0607C6.03108 37.676 5.98041 37.2067 6.15308 36.7753L6.85975 35.008C8.30708 36.2953 10.1051 37.3427 12.1697 38.098L11.9271 38.6667ZM33.2071 38.002C32.9084 38.4247 32.4404 38.6667 31.9224 38.6667H27.9111C27.7157 38.6667 27.5471 38.5413 27.4911 38.354L27.4804 38.3193C29.5944 37.556 31.4144 36.438 32.8624 35.0287L33.4064 36.5693C33.5791 37.0573 33.5064 37.5793 33.2071 38.002ZM32.1084 33.8747C32.1031 33.88 32.0977 33.8867 32.0924 33.892C31.8231 34.1653 31.5351 34.424 31.2357 34.674C31.1631 34.7347 31.0871 34.792 31.0124 34.8513C30.7904 35.028 30.5604 35.1973 30.3237 35.3613C30.2211 35.4327 30.1191 35.5053 30.0137 35.574C29.7131 35.77 29.4024 35.958 29.0797 36.1333C28.9704 36.1927 28.8557 36.246 28.7444 36.3027C28.5017 36.4267 28.2544 36.546 28.0011 36.658C27.8631 36.7187 27.7251 36.7787 27.5844 36.836C27.2831 36.9587 26.9744 37.074 26.6591 37.18C26.5891 37.2033 26.5224 37.2313 26.4517 37.254L26.4237 37.2627C24.6344 37.8353 22.6324 38.1453 20.4671 38.1453C17.7211 38.1453 15.1537 37.7013 12.9044 36.9053C12.7717 36.8587 12.6384 36.8133 12.5084 36.7647C8.70308 35.3233 5.87975 32.8387 4.80641 29.718L4.65175 29.268H3.30041C1.69441 29.268 1.35775 27.7107 1.35775 26.4033V24C1.35775 21.2693 2.81975 21.2693 3.30041 21.2693H5.30041L5.38041 20.6947C5.72975 18.1967 5.90508 16.9427 7.76841 15.1467L8.11308 14.8147L7.90908 14.382C7.74041 14.024 7.59641 13.63 7.44375 13.212C7.12375 12.334 6.77375 11.3747 6.11775 10.6467C7.38775 10.7433 8.92108 11.1867 11.0551 12.0533L11.3097 12.1567L11.5631 12.0507C11.9717 11.88 12.5684 11.6647 13.2511 11.4407C13.3837 11.77 13.5384 12.0887 13.7124 12.398C13.7257 12.422 13.7397 12.446 13.7531 12.4707C13.9104 12.744 14.0837 13.008 14.2724 13.2627C14.3057 13.3087 14.3377 13.3553 14.3724 13.4C14.5491 13.6287 14.7397 13.8467 14.9411 14.058C14.9904 14.11 15.0351 14.1647 15.0851 14.2153C15.1271 14.2573 15.1691 14.2987 15.2117 14.3393C14.8504 14.6167 14.4984 14.9107 14.1677 15.2407C13.9071 15.5013 13.9071 15.9227 14.1677 16.1833C14.4284 16.444 14.8497 16.444 15.1104 16.1833C15.5457 15.748 16.0151 15.368 16.5084 15.0393L16.6151 14.9707C16.8184 14.8393 17.0257 14.718 17.2364 14.604C17.3217 14.558 17.4084 14.516 17.4944 14.4727C17.6624 14.3887 17.8317 14.31 18.0031 14.2367C18.0711 14.208 18.1377 14.1773 18.2064 14.15C18.4484 14.054 18.6937 13.968 18.9411 13.8933C18.9824 13.8807 19.0244 13.8707 19.0657 13.8587C19.3077 13.79 19.5511 13.7293 19.7971 13.6807C19.8204 13.676 19.8437 13.6707 19.8671 13.666C21.5864 13.3387 23.3817 13.5047 25.0237 14.1633C25.0397 14.17 25.0557 14.176 25.0717 14.1827C26.1671 14.6293 27.1937 15.296 28.0817 16.1833C28.2117 16.3133 28.3824 16.3787 28.5531 16.3787C28.7237 16.3787 28.8944 16.3133 29.0244 16.1833C29.2851 15.9227 29.2851 15.5013 29.0244 15.2407C28.4724 14.6887 27.8704 14.2173 27.2377 13.814C27.2917 13.752 27.3377 13.6847 27.3897 13.6213C27.4804 13.5107 27.5711 13.4 27.6564 13.284C27.7397 13.1713 27.8184 13.056 27.8964 12.9393C27.9604 12.8433 28.0217 12.7467 28.0817 12.648C28.1604 12.5187 28.2364 12.3887 28.3077 12.256C28.3231 12.2273 28.3417 12.2 28.3564 12.1713C30.9091 13.6713 32.8237 15.8293 33.9404 18.4693C33.8031 18.5633 33.6784 18.672 33.5597 18.786C33.5384 18.8067 33.5171 18.8273 33.4964 18.8487C33.2451 19.106 33.0437 19.4047 32.8997 19.734C32.8911 19.7533 32.8817 19.7713 32.8737 19.7907C32.8071 19.952 32.7551 20.12 32.7171 20.2933C32.7104 20.3247 32.7051 20.3567 32.6997 20.3887C32.6671 20.5673 32.6444 20.7487 32.6444 20.9353C32.6444 21.134 32.6657 21.3267 32.7031 21.5147C32.7157 21.578 32.7384 21.6367 32.7551 21.698C32.7871 21.8193 32.8197 21.9407 32.8664 22.056C32.8944 22.1253 32.9317 22.1893 32.9644 22.256C33.0137 22.356 33.0637 22.4553 33.1237 22.5487C33.1664 22.6147 33.2151 22.6753 33.2624 22.7373C33.3271 22.822 33.3917 22.9053 33.4651 22.9827C33.5197 23.0407 33.5784 23.094 33.6377 23.148C33.7151 23.2187 33.7951 23.2853 33.8797 23.3473C33.9451 23.3953 34.0117 23.4393 34.0804 23.482C34.1697 23.5373 34.2617 23.5867 34.3571 23.632C34.4304 23.6673 34.5037 23.7007 34.5797 23.7293C34.6804 23.768 34.7837 23.798 34.8891 23.8253C34.9677 23.846 35.0451 23.8673 35.1264 23.8813C35.1591 23.8873 35.1897 23.8993 35.2231 23.904C35.2824 24.5747 35.3124 25.2553 35.3124 25.9333C35.3111 29.0747 34.1471 31.8 32.1084 33.8747ZM36.6031 24.5207C36.5891 24.2733 36.5617 24.0293 36.5404 23.784C37.6004 23.4493 38.4051 22.552 38.5944 21.436C38.6251 21.598 38.6451 21.7647 38.6451 21.936C38.6444 23.19 37.7711 24.238 36.6031 24.5207Z" fill="#ADADAD"/>
<path d="M17.5548 12.4613C17.6768 12.5553 17.8201 12.6007 17.9628 12.6007C18.1615 12.6007 18.3588 12.512 18.4901 12.3427C18.7155 12.0513 18.6628 11.6327 18.3715 11.4073C17.3201 10.5927 16.7168 9.36666 16.7168 8.04533C16.7168 5.69866 18.6255 3.79 20.9721 3.79C23.3188 3.79 25.2275 5.69866 25.2275 8.04533C25.2275 9.24 24.7408 10.3487 23.8568 11.166C23.5868 11.416 23.5701 11.8373 23.8201 12.108C24.0701 12.378 24.4915 12.3947 24.7621 12.1447C25.9048 11.088 26.5601 9.59333 26.5601 8.04533C26.5601 4.964 24.0528 2.45667 20.9715 2.45667C17.8901 2.45667 15.3828 4.964 15.3828 8.04533C15.3835 9.782 16.1748 11.392 17.5548 12.4613Z" fill="#ADADAD"/>
<path d="M21.2481 35.336C18.2201 35.598 15.7068 35.1987 13.0968 34.0433C12.7595 33.8947 12.3661 34.046 12.2175 34.3833C12.0681 34.72 12.2208 35.114 12.5575 35.2627C14.8148 36.262 17.0781 36.744 19.5661 36.744C20.1515 36.744 20.7501 36.7173 21.3635 36.664C21.7301 36.6327 22.0021 36.3093 21.9701 35.9427C21.9381 35.576 21.6135 35.2967 21.2481 35.336Z" fill="#ADADAD"/>
</g>
<defs>
<clipPath id="clip0">
<rect width="40" height="40" fill="white"/>
</clipPath>
</defs>
</svg>
