<svg width="40" height="40" viewBox="0 0 40 40" fill="none" xmlns="http://www.w3.org/2000/svg">
<g clip-path="url(#clip0)">
<path d="M11.0571 6.68556C11.3285 7.47092 12.0598 7.99894 12.8772 7.99894H17.8313C18.6487 7.99894 19.3801 7.47092 19.6514 6.68556C19.9101 5.93487 20.7228 4.25548 21.3534 3.72213C21.9061 3.25345 22.1655 2.52742 22.0295 1.8274C21.8961 1.13871 21.4155 0.594692 20.7441 0.372684C18.7434 -0.290671 16.9686 -0.0673302 15.6119 1.01737C15.3686 1.21205 15.0419 1.21205 14.7986 1.01737C13.4419 -0.0666636 11.6685 -0.290004 9.6664 0.373351C8.99504 0.595359 8.51369 1.13871 8.38035 1.82807C8.24435 2.52809 8.50369 3.25411 9.05638 3.7228C9.7704 4.32682 10.8638 6.12554 11.0571 6.68556ZM9.68973 2.08207C9.71373 1.9574 9.79773 1.73473 10.0857 1.63939C10.7058 1.43405 11.2838 1.33205 11.8185 1.33205C12.6412 1.33205 13.3599 1.57472 13.9659 2.05941C14.6959 2.64409 15.7159 2.64276 16.4446 2.05941C17.4453 1.25938 18.75 1.11804 20.3247 1.63939C20.6128 1.73473 20.6961 1.95807 20.7201 2.08207C20.7648 2.31342 20.6794 2.54609 20.4914 2.70543C19.4727 3.56812 18.562 5.7562 18.3914 6.25155C18.306 6.49956 18.0807 6.66623 17.832 6.66623H12.8778C12.6285 6.66623 12.4038 6.49956 12.3185 6.25155C12.0405 5.44619 10.8038 3.45545 9.91907 2.70543C9.7304 2.54542 9.6444 2.31275 9.68973 2.08207Z" fill="#ADADAD"/>
<path d="M21.0218 9.33234C21.0218 8.96433 20.7231 8.66565 20.3551 8.66565C20.2311 8.66565 20.1211 8.70898 20.0218 8.76765C19.9224 8.70832 19.8124 8.66565 19.6884 8.66565H11.6882C11.3202 8.66565 11.0215 8.96433 11.0215 9.33234C11.0215 9.70035 11.3202 9.99903 11.6882 9.99903H19.6884V10.6657H12.3549C11.9868 10.6657 11.6882 10.9644 11.6882 11.3324C11.6882 11.7004 11.9868 11.9991 12.3549 11.9991H20.3051C20.9025 12.4964 21.6385 12.7811 22.4245 12.7811C23.3146 12.7811 24.1519 12.4338 24.7819 11.8038C25.0426 11.5431 25.0426 11.1217 24.7819 10.8611C24.5213 10.6004 24.0999 10.6004 23.8392 10.8611C23.0859 11.6144 21.7805 11.6164 21.0218 10.8704V9.33234Z" fill="#ADADAD"/>
<path d="M14.3551 17.3326C10.081 17.3326 5.02148 22.7534 5.02148 27.3329C5.02148 27.7009 5.32016 27.9996 5.68817 27.9996C6.05619 27.9996 6.35486 27.7009 6.35486 27.3329C6.35486 23.5261 10.841 18.666 14.3551 18.666C14.7231 18.666 15.0218 18.3673 15.0218 17.9993C15.0218 17.6313 14.7231 17.3326 14.3551 17.3326Z" fill="#ADADAD"/>
<path d="M33.022 21.3327C32.3346 21.3327 31.5159 21.3727 30.6906 21.4667C29.7925 19.8227 28.6085 18.4086 27.1138 17.2639L22.3123 14.0005C21.5183 13.3911 20.2669 12.6658 18.8148 12.6658H13.63C12.3473 12.6658 11.0859 13.1025 10.0966 13.8805L5.37773 17.3186C0.45957 21.1854 -1.09715 27.9616 1.67694 33.4311C2.68631 35.4212 4.37237 37.8259 6.67778 37.9819C6.85845 37.9939 7.04112 38.0006 7.22513 38.0006H20.1982C21.1769 39.218 22.675 40.0007 24.355 40.0007C26.2871 40.0007 27.9778 38.964 28.9138 37.4213C30.1052 37.7913 31.5659 38.0006 33.022 38.0006C36.2281 38.0006 39.6889 36.9812 39.6889 35.3339V31.6671H39.6362C39.6682 31.5591 39.6889 31.4484 39.6889 31.3337V27.3336V23.6668C39.6889 21.8241 35.4981 21.3327 33.022 21.3327ZM38.3048 23.6601C38.2908 23.6741 38.2795 23.6881 38.2602 23.7035C38.2342 23.7241 38.2028 23.7461 38.1675 23.7688C38.1235 23.7968 38.0702 23.8261 38.0121 23.8555C37.9648 23.8795 37.9155 23.9041 37.8588 23.9288C37.7888 23.9601 37.7061 23.9915 37.6215 24.0235C37.5535 24.0488 37.4848 24.0741 37.4075 24.1001C37.3101 24.1322 37.1981 24.1642 37.0855 24.1955C36.9974 24.2202 36.9108 24.2455 36.8134 24.2695C36.6868 24.3008 36.5441 24.3295 36.4021 24.3582C36.2948 24.3802 36.1928 24.4028 36.0768 24.4235C35.9167 24.4515 35.7381 24.4755 35.5614 24.4995C35.4407 24.5162 35.3281 24.5348 35.1994 24.5495C34.9894 24.5735 34.758 24.5902 34.5274 24.6068C34.41 24.6155 34.3034 24.6275 34.1807 24.6348C33.8167 24.6548 33.4313 24.6668 33.02 24.6668C32.6086 24.6668 32.2233 24.6548 31.8593 24.6348C31.7366 24.6282 31.6299 24.6162 31.5126 24.6068C31.2819 24.5895 31.0506 24.5728 30.8406 24.5495C30.7119 24.5348 30.5992 24.5162 30.4786 24.4995C30.3019 24.4755 30.1232 24.4515 29.9632 24.4235C29.8472 24.4028 29.7452 24.3802 29.6379 24.3582C29.4959 24.3288 29.3532 24.3002 29.2265 24.2695C29.1292 24.2455 29.0432 24.2208 28.9545 24.1955C28.8418 24.1642 28.7305 24.1322 28.6325 24.1001C28.5552 24.0748 28.4865 24.0488 28.4185 24.0235C28.3338 23.9915 28.2512 23.9601 28.1812 23.9288C28.1245 23.9041 28.0752 23.8795 28.0278 23.8555C27.9698 23.8255 27.9165 23.7961 27.8725 23.7688C27.8371 23.7461 27.8058 23.7248 27.7798 23.7035C27.7618 23.6895 27.7518 23.6768 27.7385 23.6635C27.7465 23.6568 27.7518 23.6501 27.7611 23.6428C27.7858 23.6221 27.8211 23.5988 27.8558 23.5761C27.9098 23.5408 27.9771 23.5035 28.0565 23.4635C28.0998 23.4415 28.1425 23.4201 28.1932 23.3981C28.2458 23.3748 28.3065 23.3515 28.3672 23.3275C28.4392 23.2995 28.5178 23.2715 28.6012 23.2435C28.6612 23.2235 28.7192 23.2028 28.7858 23.1828C28.9352 23.1375 29.0985 23.0928 29.2779 23.0494C29.3605 23.0294 29.4565 23.0114 29.5465 22.9928C29.6552 22.9694 29.7665 22.9468 29.8845 22.9254C30.0146 22.9021 30.1526 22.8801 30.2952 22.8588C31.0466 22.7454 31.9459 22.6668 33.0187 22.6668C36.1694 22.6661 37.9315 23.3161 38.3048 23.6601ZM28.1385 29.145C28.1985 29.1703 28.2605 29.1943 28.3232 29.219C28.4392 29.2643 28.5578 29.307 28.6805 29.349C28.7452 29.371 28.8085 29.3923 28.8745 29.413C29.0152 29.457 29.1599 29.4977 29.3079 29.537C29.3599 29.551 29.4099 29.5663 29.4625 29.579C29.6645 29.6297 29.8712 29.6763 30.0832 29.7177C30.1272 29.7263 30.1732 29.733 30.2179 29.7417C30.3879 29.7737 30.5599 29.803 30.7346 29.829C30.8092 29.8403 30.8846 29.8497 30.9599 29.8597C31.1099 29.8797 31.2606 29.8977 31.4133 29.9137C31.4933 29.9217 31.5733 29.9297 31.6533 29.937C31.8106 29.951 31.9686 29.9617 32.1273 29.971C32.198 29.975 32.2686 29.9803 32.3393 29.9837C32.5673 29.9937 32.7946 30.0003 33.0213 30.0003C33.248 30.0003 33.4753 29.9937 33.7033 29.9837C33.7753 29.9803 33.8473 29.975 33.9193 29.971C34.076 29.9617 34.2327 29.951 34.3887 29.9377C34.4707 29.9303 34.5527 29.9223 34.634 29.9137C34.784 29.8983 34.9327 29.8803 35.0807 29.8603C35.1581 29.8503 35.2354 29.8403 35.3121 29.829C35.4841 29.8037 35.6534 29.7743 35.8207 29.743C35.8681 29.7343 35.9161 29.727 35.9634 29.7177C36.1741 29.6757 36.3801 29.6297 36.5808 29.5797C36.6368 29.5657 36.6901 29.5497 36.7454 29.535C36.8901 29.4963 37.0321 29.4563 37.1695 29.413C37.2368 29.3917 37.3015 29.3697 37.3668 29.3477C37.4888 29.3063 37.6075 29.263 37.7228 29.2183C37.7848 29.1943 37.8468 29.1697 37.9068 29.1443C38.0268 29.0936 38.1408 29.0403 38.2508 28.9856C38.2855 28.9683 38.3248 28.9536 38.3582 28.9363L38.3622 31.2857C38.2055 31.6651 36.4828 32.5104 33.7647 32.6458C33.5207 32.6544 33.2847 32.6664 33.0213 32.6664C31.5526 32.6664 30.1019 32.4411 28.9939 32.0451C28.9899 32.0384 28.9852 32.0317 28.9812 32.0251C28.9025 31.8877 28.8192 31.7537 28.7292 31.6244C28.7158 31.6051 28.7005 31.5871 28.6865 31.5677C28.6032 31.4511 28.5172 31.3371 28.4245 31.2277C28.3965 31.1951 28.3665 31.1651 28.3378 31.1324C28.2558 31.0397 28.1732 30.9484 28.0852 30.8617C28.0398 30.817 27.9912 30.777 27.9445 30.7337C27.8671 30.663 27.7911 30.5924 27.7105 30.5264C27.7025 30.5197 27.6958 30.5124 27.6878 30.5064C27.6878 30.2457 27.6885 29.6663 27.6891 28.9376C27.7231 28.9556 27.7638 28.971 27.7985 28.9883C27.9085 29.0423 28.0205 29.095 28.1385 29.145ZM19.3309 36.6666H7.22513C7.07112 36.6666 6.91778 36.6612 6.76645 36.6512C5.4564 36.5626 4.07102 35.2045 2.86565 32.8278C0.378233 27.9236 1.78161 21.8414 6.18176 18.3813L10.9006 14.9432C11.6753 14.3345 12.6446 13.9991 13.6293 13.9991H18.8142C19.8922 13.9991 20.8696 14.5752 21.5316 15.0812L26.3331 18.344C27.5258 19.2587 28.5198 20.3774 29.2965 21.6781C28.4525 21.8521 27.6365 22.1174 27.0758 22.5068C27.0605 22.5174 27.0451 22.5281 27.0298 22.5388C26.9451 22.6001 26.8678 22.6648 26.7971 22.7328C26.7671 22.7614 26.7404 22.7908 26.7131 22.8208C26.6604 22.8788 26.6098 22.9374 26.5684 23.0001C26.5338 23.0514 26.5084 23.1068 26.4818 23.1615C26.4584 23.2108 26.4304 23.2581 26.4138 23.3101C26.3771 23.4228 26.3544 23.5408 26.3544 23.6661V27.3329V29.7257C26.1298 29.6343 25.8971 29.561 25.6584 29.501C25.6271 29.493 25.5957 29.4843 25.5644 29.477C25.3311 29.4223 25.0931 29.381 24.8497 29.3583C24.8224 29.3557 24.795 29.3563 24.7677 29.3543C24.631 29.3437 24.4937 29.3337 24.3544 29.3337C24.281 29.3337 24.2104 29.3417 24.1377 29.3443C24.081 29.3463 24.0244 29.349 23.9677 29.353C23.7303 29.3703 23.4957 29.3977 23.2677 29.445C23.263 29.4457 23.259 29.4457 23.2543 29.447C23.2363 29.451 23.2197 29.4583 23.2017 29.4623C22.993 29.5083 22.7896 29.569 22.591 29.6397C22.519 29.665 22.447 29.6903 22.3763 29.7183C22.1783 29.7977 21.985 29.8857 21.7989 29.9877C21.7289 30.0257 21.6636 30.0697 21.5956 30.111C21.4656 30.1904 21.3389 30.2737 21.2169 30.3637C21.1449 30.4164 21.0723 30.4677 21.0029 30.5237C20.8462 30.6504 20.6969 30.7857 20.5556 30.9297C20.4936 30.9924 20.4369 31.059 20.3782 31.125C20.2782 31.2371 20.1829 31.3537 20.0929 31.4737C20.0442 31.5391 19.9929 31.6011 19.9469 31.6684C19.8295 31.8397 19.7249 32.0197 19.6282 32.2044C19.5909 32.2764 19.5569 32.3498 19.5222 32.4238C19.4462 32.5871 19.3782 32.7538 19.3189 32.9258C19.3015 32.9758 19.2802 33.0231 19.2649 33.0738C19.1962 33.2925 19.1462 33.5191 19.1062 33.7485C19.1009 33.7778 19.0902 33.8058 19.0855 33.8351C19.0802 33.8711 19.0802 33.9098 19.0755 33.9458C19.0542 34.1025 19.0409 34.2612 19.0335 34.4218C19.0309 34.4792 19.0255 34.5358 19.0249 34.5938C19.0249 34.6185 19.0209 34.6425 19.0209 34.6672C19.0209 34.7732 19.0309 34.8765 19.0369 34.9805C19.0629 35.5565 19.1569 36.1352 19.3309 36.6666ZM24.355 38.6666C22.165 38.6666 20.3829 36.8972 20.3576 34.7138C20.3576 34.6618 20.3589 34.6105 20.3609 34.5585C20.3629 34.4852 20.3662 34.4125 20.3722 34.3398C20.3769 34.2785 20.3842 34.2178 20.3916 34.1572C20.3996 34.0951 20.4089 34.0338 20.4196 33.9731C20.4496 33.7998 20.4882 33.6285 20.5409 33.4625C20.5462 33.4445 20.5542 33.4278 20.5602 33.4105C20.6162 33.2431 20.6836 33.0798 20.7616 32.9218C20.7689 32.9064 20.7762 32.8911 20.7836 32.8764C21.1429 32.1711 21.7103 31.5751 22.3976 31.1824C22.4003 31.1811 22.4023 31.1791 22.405 31.1777C22.561 31.089 22.725 31.0144 22.8916 30.9477C22.935 30.9304 22.979 30.915 23.0223 30.8997C23.1703 30.847 23.321 30.801 23.4763 30.767C23.4977 30.7624 23.5177 30.755 23.539 30.751C23.7317 30.7117 23.925 30.6904 24.1177 30.679C24.1544 30.677 24.191 30.6744 24.2284 30.6737C24.425 30.6677 24.621 30.673 24.8144 30.6957C24.8257 30.697 24.8364 30.699 24.847 30.701C25.0511 30.7264 25.2531 30.767 25.4517 30.8244C25.4544 30.825 25.4577 30.8257 25.4604 30.8264C25.6651 30.8857 25.8657 30.9624 26.0618 31.055C26.2418 31.1404 26.4171 31.2357 26.5811 31.3457L26.6078 31.3644C26.6311 31.3804 26.6524 31.3984 26.6751 31.4144C26.7858 31.4937 26.8918 31.5777 26.9938 31.6677C27.0185 31.6891 27.0425 31.7117 27.0665 31.7337C27.1685 31.8284 27.2658 31.9271 27.3571 32.0311C27.3665 32.0417 27.3758 32.0511 27.3851 32.0617C27.5971 32.3084 27.7798 32.5811 27.9265 32.8738C27.9605 32.9404 27.9945 33.0078 28.0245 33.0764C28.0752 33.1931 28.1192 33.3111 28.1585 33.4305C28.1612 33.4391 28.1652 33.4478 28.1678 33.4565C28.2065 33.5771 28.2378 33.6998 28.2645 33.8231C28.2665 33.8331 28.2698 33.8425 28.2718 33.8518C28.2972 33.9745 28.3158 34.0985 28.3298 34.2232C28.3312 34.2345 28.3338 34.2445 28.3352 34.2558C28.3492 34.3918 28.3565 34.5285 28.3565 34.6665C28.3565 34.8078 28.3485 34.9485 28.3338 35.0885C28.3318 35.1092 28.3272 35.1285 28.3245 35.1492C28.3098 35.2699 28.2918 35.3899 28.2658 35.5079C28.2632 35.5212 28.2585 35.5339 28.2558 35.5472C28.2272 35.6739 28.1932 35.7992 28.1518 35.9232C28.1498 35.9285 28.1478 35.9339 28.1458 35.9392C28.1018 36.0685 28.0512 36.1959 27.9938 36.3219C27.3611 37.7026 25.9698 38.6666 24.355 38.6666ZM33.022 36.6666C31.7566 36.6666 30.4972 36.4979 29.4625 36.1959C29.4632 36.1945 29.4632 36.1932 29.4632 36.1919C29.5279 35.9759 29.5752 35.7532 29.6125 35.5265C29.6212 35.4725 29.6299 35.4192 29.6372 35.3645C29.6672 35.1352 29.6885 34.9038 29.6885 34.6665C29.6885 34.4938 29.6792 34.3225 29.6625 34.1525C29.6565 34.0912 29.6459 34.0318 29.6379 33.9711C29.6265 33.8851 29.6185 33.7985 29.6032 33.7138C30.6146 33.9005 31.7893 33.9998 33.022 33.9998C34.6154 33.9998 36.9188 33.7965 38.3582 33.1604L38.3622 35.2859C38.1915 35.6985 36.1681 36.6666 33.022 36.6666ZM33.022 28.6663C29.8865 28.6663 27.8678 27.7056 27.6918 27.3369C27.6925 26.5769 27.6931 25.8055 27.6931 25.1629C27.7098 25.1702 27.7298 25.1762 27.7471 25.1835C27.9065 25.2515 28.0732 25.3155 28.2505 25.3742C28.2598 25.3775 28.2692 25.3809 28.2792 25.3835C28.4605 25.4422 28.6518 25.4949 28.8472 25.5435C28.9112 25.5595 28.9772 25.5742 29.0425 25.5889C29.1852 25.6215 29.3292 25.6529 29.4765 25.6809C29.5479 25.6949 29.6185 25.7082 29.6905 25.7209C29.8525 25.7495 30.0152 25.7749 30.1799 25.7989C30.2319 25.8062 30.2832 25.8149 30.3352 25.8222C30.5506 25.8509 30.7659 25.8762 30.9799 25.8969C31.0339 25.9022 31.0866 25.9062 31.1406 25.9109C31.3053 25.9255 31.4679 25.9389 31.6293 25.9495C31.6993 25.9542 31.7673 25.9582 31.8359 25.9622C31.9853 25.9709 32.1306 25.9775 32.2746 25.9829C32.3353 25.9849 32.396 25.9875 32.4553 25.9895C32.6506 25.9949 32.8413 25.9982 33.0213 25.9982C33.2007 25.9982 33.3913 25.9949 33.5867 25.9895C33.6473 25.9875 33.7087 25.9849 33.77 25.9829C33.9127 25.9775 34.0574 25.9709 34.206 25.9622C34.276 25.9582 34.3447 25.9542 34.4154 25.9495C34.5767 25.9389 34.74 25.9255 34.9047 25.9102C34.958 25.9055 35.0101 25.9015 35.0634 25.8962C35.2781 25.8749 35.4934 25.8502 35.7087 25.8209C35.7614 25.8135 35.8134 25.8049 35.8661 25.7975C36.0301 25.7742 36.1928 25.7482 36.3541 25.7195C36.4268 25.7069 36.4974 25.6929 36.5688 25.6795C36.7161 25.6509 36.8608 25.6202 37.0041 25.5869C37.0695 25.5715 37.1348 25.5575 37.1988 25.5415C37.3981 25.4915 37.5928 25.4382 37.7775 25.3782C37.7868 25.3749 37.7948 25.3715 37.8041 25.3689C37.9781 25.3115 38.1428 25.2482 38.2995 25.1815C38.3182 25.1735 38.3402 25.1669 38.3588 25.1589L38.3628 27.2843C38.1915 27.6983 36.1681 28.6663 33.022 28.6663Z" fill="#ADADAD"/>
</g>
<defs>
<clipPath id="clip0">
<rect width="40" height="40" fill="white"/>
</clipPath>
</defs>
</svg>
