<svg width="176" height="176" viewBox="0 0 176 176" fill="none" xmlns="http://www.w3.org/2000/svg">
<g clip-path="url(#clip0)">
<path d="M110.143 137.42H143.359L129.519 173.404H121.215L110.143 137.42Z" fill="#F7D9DB"/>
<path d="M65.8548 137.42H32.6387L46.4787 173.404H54.7826L65.8548 137.42Z" fill="#F7D9DB"/>
<path d="M139.744 80.3942L135.056 40.5397L106.913 54.6107C100.959 52.6668 94.603 51.6115 87.9996 51.6115C81.3962 51.6115 75.0403 52.6668 69.0859 54.6107L40.9435 40.5397L36.2548 80.3942C30.4561 89.7177 27.1035 100.72 27.1035 112.508C27.1035 146.14 54.3676 173.404 87.9996 173.404C121.632 173.404 148.896 146.14 148.896 112.508C148.895 100.72 145.543 89.7177 139.744 80.3942Z" fill="#F7D9DB"/>
<path d="M93.5357 162.332C59.9037 162.332 32.6396 135.068 32.6396 101.436C32.6396 93.6602 34.0995 86.2263 36.757 79.3901L36.2548 80.3946C30.4561 89.7181 27.1035 100.721 27.1035 112.508C27.1035 146.14 54.3676 173.404 87.9996 173.404C114.051 173.404 136.277 157.044 144.976 134.039C134.174 151.045 115.174 162.332 93.5357 162.332Z" fill="#EC9A9D"/>
<path d="M113.26 60.7215L128.189 53.2567L130.323 71.3856L113.26 60.7215Z" fill="#EC9A9D"/>
<path d="M62.7381 60.7215L47.8084 53.2567L45.6758 71.3856L62.7381 60.7215Z" fill="#EC9A9D"/>
<path d="M87.9988 120.813C97.1713 120.813 104.607 115.236 104.607 108.357C104.607 101.478 97.1713 95.9011 87.9988 95.9011C78.8264 95.9011 71.3906 101.478 71.3906 108.357C71.3906 115.236 78.8264 120.813 87.9988 120.813Z" fill="#FDF7F7"/>
<path d="M88.0008 112.508C80.77 112.508 74.6221 109.041 72.3413 104.204C71.7288 105.503 71.3926 106.9 71.3926 108.356C71.3926 115.236 78.8282 120.813 88.0008 120.813C97.1734 120.813 104.609 115.236 104.609 108.356C104.609 106.9 104.273 105.503 103.66 104.204C101.379 109.041 95.2315 112.508 88.0008 112.508Z" fill="#FAE6E7"/>
<path d="M88 45.2707C99.7845 45.2707 109.338 35.7174 109.338 23.9328C109.338 12.1483 99.7845 2.59497 88 2.59497C76.2154 2.59497 66.6621 12.1483 66.6621 23.9328C66.6621 35.7174 76.2154 45.2707 88 45.2707Z" fill="#FAD000"/>
<path d="M87.9982 37.7728C95.6418 37.7728 101.838 31.5764 101.838 23.9328C101.838 16.2892 95.6418 10.0928 87.9982 10.0928C80.3546 10.0928 74.1582 16.2892 74.1582 23.9328C74.1582 31.5764 80.3546 37.7728 87.9982 37.7728Z" fill="#FBDC40"/>
<path d="M151.306 107.618C151.197 106.189 149.954 105.118 148.521 105.228C147.092 105.337 146.022 106.584 146.131 108.013C146.245 109.498 146.302 111.011 146.302 112.508C146.302 144.656 120.148 170.809 88.0008 170.809C55.8535 170.809 29.6997 144.655 29.6997 112.508C29.6997 101.61 32.7284 90.9793 38.4594 81.7651C38.6612 81.441 38.7884 81.0766 38.8331 80.6981L43.0901 44.5145L67.9266 56.9327C68.5378 57.2383 69.2438 57.2906 69.8925 57.0785C75.728 55.1734 81.8202 54.2078 88.0008 54.2078C94.1814 54.2078 100.274 55.1738 106.11 57.0788C106.757 57.2906 107.464 57.2383 108.075 56.9327L132.912 44.5145L137.169 80.6981C137.213 81.0769 137.34 81.4413 137.542 81.7651C140.481 86.4903 142.721 91.596 144.199 96.9396C144.581 98.3204 146.009 99.131 147.392 98.7487C148.773 98.3668 149.583 96.9372 149.201 95.5556C147.642 89.9206 145.306 84.5295 142.256 79.5222L137.633 40.2365C137.427 38.4827 135.479 37.4274 133.895 38.2187L106.695 51.8191C100.651 49.9594 94.3681 49.0169 88.0001 49.0169C81.6322 49.0169 75.3488 49.9594 69.3057 51.8191L42.1045 38.2187C40.5212 37.4267 38.5732 38.483 38.3666 40.2365L33.7459 79.5222C27.7015 89.4441 24.5098 100.836 24.5098 112.508C24.5098 122.797 26.972 132.52 31.3342 141.123C31.3631 141.28 31.4043 141.435 31.4635 141.589L44.0588 174.336C44.4441 175.338 45.4069 176 46.4808 176H54.7847C55.9239 176 56.9301 175.257 57.2649 174.168L58.8808 168.917C67.6083 173.441 77.511 176 88.0005 176C98.4907 176 108.393 173.441 117.121 168.917L118.737 174.168C119.072 175.257 120.077 176 121.217 176H129.521C130.595 176 131.558 175.339 131.943 174.336L144.66 141.274C144.703 141.162 144.734 141.049 144.761 140.936C149.064 132.379 151.492 122.722 151.492 112.509C151.492 110.879 151.43 109.234 151.306 107.618ZM52.8683 170.809H48.2631L43.0804 157.335C46.4533 160.715 50.206 163.715 54.265 166.271L52.8683 170.809ZM127.739 170.809H123.134L121.737 166.271C125.796 163.715 129.549 160.715 132.922 157.335L127.739 170.809Z" fill="#140300"/>
<path d="M130.324 73.9805C131.857 73.9805 133.08 72.6014 132.901 71.0824L130.769 52.9534C130.562 51.1996 128.614 50.1443 127.031 50.9356L112.101 58.4005C110.323 59.2894 110.2 61.8675 111.887 62.9221L128.949 73.5862C129.369 73.8496 129.847 73.9805 130.324 73.9805ZM118.56 60.9734L126.046 57.2307L127.115 66.3201L118.56 60.9734Z" fill="black"/>
<path d="M65.3319 60.5984C65.2872 59.6607 64.74 58.8202 63.9002 58.4005L48.9705 50.9356C47.3872 50.1433 45.4392 51.2 45.2326 52.9534L43.1 71.0824C42.8514 73.1954 45.2374 74.7206 47.0527 73.5859L64.1151 62.9218C64.9112 62.4244 65.3766 61.5358 65.3319 60.5984ZM48.886 66.3201L49.9554 57.2307L57.4408 60.9734L48.886 66.3201Z" fill="black"/>
<path d="M118.448 92.9589C119.882 92.9589 121.043 91.797 121.043 90.3639C121.043 85.8804 117.396 82.2329 112.912 82.2329C108.429 82.2329 104.781 85.8804 104.781 90.3639C104.781 91.797 105.943 92.9589 107.376 92.9589C108.81 92.9589 109.971 91.797 109.971 90.3639C109.971 88.7421 111.29 87.4228 112.912 87.4228C114.534 87.4228 115.853 88.7421 115.853 90.3639C115.853 91.797 117.015 92.9589 118.448 92.9589Z" fill="black"/>
<path d="M57.552 92.9589C58.9851 92.9589 60.1469 91.797 60.1469 90.3639C60.1469 88.7421 61.4663 87.4228 63.0881 87.4228C64.7099 87.4228 66.0292 88.7421 66.0292 90.3639C66.0292 91.797 67.191 92.9589 68.6241 92.9589C70.0572 92.9589 71.2191 91.797 71.2191 90.3639C71.2191 85.8804 67.5716 82.2329 63.0881 82.2329C58.6045 82.2329 54.957 85.8804 54.957 90.3639C54.957 91.797 56.1189 92.9589 57.552 92.9589Z" fill="black"/>
<path d="M88.0001 123.407C98.5889 123.407 107.203 116.655 107.203 108.356C107.203 100.057 98.5889 93.3051 88.0001 93.3051C77.4112 93.3051 68.7969 100.057 68.7969 108.356C68.7969 116.655 77.4112 123.407 88.0001 123.407ZM88.0001 98.495C95.7268 98.495 102.013 102.919 102.013 108.356C102.013 113.794 95.7268 118.217 88.0001 118.217C80.2733 118.217 73.9871 113.794 73.9871 108.356C73.9871 102.919 80.2736 98.495 88.0001 98.495Z" fill="black"/>
<path d="M77.2977 110.733C77.7161 111.724 78.7246 112.378 79.8033 112.333C80.8737 112.287 81.8163 111.566 82.1566 110.554C82.9067 108.32 80.3798 106.316 78.3682 107.511C77.2668 108.166 76.824 109.551 77.2977 110.733Z" fill="black"/>
<path d="M93.9067 110.733C94.3202 111.71 95.3016 112.361 96.3683 112.333C97.4274 112.306 98.3923 111.614 98.747 110.614C99.1103 109.591 98.7883 108.425 97.9499 107.734C97.0781 107.017 95.8042 106.957 94.8654 107.58C93.8393 108.262 93.453 109.598 93.9067 110.733Z" fill="black"/>
<path d="M61.624 126.362C69.415 131.672 78.535 134.479 87.9991 134.479C97.4625 134.479 106.582 131.673 114.373 126.362C115.557 125.555 115.863 123.941 115.056 122.757C114.248 121.573 112.634 121.267 111.45 122.074C104.524 126.794 96.4154 129.289 87.9994 129.289C79.5827 129.289 71.473 126.794 64.5475 122.073C63.364 121.266 61.7491 121.572 60.942 122.756C60.1338 123.94 60.4394 125.555 61.624 126.362Z" fill="black"/>
<path d="M88.0001 47.8632C101.196 47.8632 111.932 37.1276 111.932 23.9314C111.932 10.7353 101.196 0 88.0001 0C74.804 0 64.0684 10.7356 64.0684 23.9318C64.0684 37.1279 74.8043 47.8632 88.0001 47.8632ZM88.0001 5.18992C98.3346 5.18992 106.742 13.5973 106.742 23.9318C106.742 34.2662 98.3346 42.6736 88.0001 42.6736C77.6657 42.6736 69.2583 34.2662 69.2583 23.9318C69.2583 13.5973 77.666 5.18992 88.0001 5.18992Z" fill="#140300"/>
<path d="M168.273 79.4651H165.331V76.524C165.331 75.0909 164.17 73.929 162.736 73.929C161.303 73.929 160.142 75.0909 160.142 76.524V79.4651H157.2C155.767 79.4651 154.605 80.6269 154.605 82.06C154.605 83.4931 155.767 84.655 157.2 84.655H160.142V87.5961C160.142 89.0292 161.303 90.1911 162.736 90.1911C164.17 90.1911 165.331 89.0292 165.331 87.5961V84.655H168.273C169.706 84.655 170.868 83.4931 170.868 82.06C170.868 80.6269 169.706 79.4651 168.273 79.4651Z" fill="#140300"/>
<path d="M123.984 15.4549H126.925V18.396C126.925 19.8291 128.086 20.991 129.52 20.991C130.953 20.991 132.115 19.8291 132.115 18.396V15.4549H135.056C136.489 15.4549 137.651 14.2931 137.651 12.86C137.651 11.4269 136.489 10.265 135.056 10.265H132.115V7.3239C132.115 5.89081 130.953 4.72894 129.52 4.72894C128.086 4.72894 126.925 5.89081 126.925 7.3239V10.265H123.984C122.55 10.265 121.389 11.4269 121.389 12.86C121.389 14.2931 122.551 15.4549 123.984 15.4549Z" fill="#140300"/>
<path d="M18.7999 62.8569H15.8588V59.9158C15.8588 58.4827 14.6969 57.3208 13.2638 57.3208C11.8308 57.3208 10.6689 58.4827 10.6689 59.9158V62.8569H7.72777C6.29468 62.8569 5.13281 64.0187 5.13281 65.4518C5.13281 66.8849 6.29468 68.0468 7.72777 68.0468H10.6689V70.9879C10.6689 72.421 11.8308 73.5829 13.2638 73.5829C14.6969 73.5829 15.8588 72.421 15.8588 70.9879V68.0468H18.7999C20.233 68.0468 21.3949 66.8849 21.3949 65.4518C21.3949 64.0187 20.233 62.8569 18.7999 62.8569Z" fill="#140300"/>
</g>
<defs>
<clipPath id="clip0">
<rect width="176" height="176" fill="white"/>
</clipPath>
</defs>
</svg>
