<svg width="24" height="24" viewBox="0 0 24 24" fill="none" xmlns="http://www.w3.org/2000/svg">
<path d="M19.1516 16.5688H4.84229C4.45392 16.5688 4.13916 16.8836 4.13916 17.272C4.13916 17.6602 4.45392 17.9751 4.84229 17.9751H19.1516C19.54 17.9751 19.8547 17.6602 19.8547 17.272C19.8547 16.8836 19.54 16.5688 19.1516 16.5688Z" fill="#140300"/>
<path d="M16.1391 19.5813H7.10156C6.7132 19.5813 6.39844 19.8961 6.39844 20.2844C6.39844 20.6726 6.7132 20.9875 7.10156 20.9875H16.1391C16.5273 20.9875 16.8422 20.6726 16.8422 20.2844C16.8422 19.8961 16.5273 19.5813 16.1391 19.5813Z" fill="#140300"/>
<path d="M20.2811 1.50623H19.478V0.703125C19.478 0.314758 19.1633 0 18.7749 0C18.3867 0 18.0718 0.314758 18.0718 0.703125V1.50623H14.9594V0.703125C14.9594 0.314758 14.6446 0 14.2562 0C13.8679 0 13.5531 0.314758 13.5531 0.703125V1.50623H10.4407V0.703125C10.4407 0.314758 10.1257 0 9.73755 0C9.34918 0 9.03442 0.314758 9.03442 0.703125V1.50623H5.92181V0.703125C5.92181 0.314758 5.60706 0 5.21869 0C4.83051 0 4.51556 0.314758 4.51556 0.703125V1.50623H3.71246C2.07898 1.50623 0.75 2.83521 0.75 4.46869V21.0375C0.75 22.671 2.07898 24 3.71246 24H20.2813C21.9148 24 23.2438 22.671 23.2438 21.0375V4.46869C23.2438 2.83521 21.9148 1.50623 20.2811 1.50623ZM21.8375 21.0375C21.8375 21.8956 21.1393 22.5938 20.2813 22.5938H3.71246C2.85443 22.5938 2.15625 21.8956 2.15625 21.0375V4.46869C2.15625 3.61066 2.85443 2.91248 3.71246 2.91248H4.51556V3.71558C4.51556 4.10394 4.83051 4.4187 5.21869 4.4187C5.60706 4.4187 5.92181 4.10394 5.92181 3.71558V2.91248H9.03442V3.71558C9.03442 4.10394 9.34918 4.4187 9.73755 4.4187C10.1257 4.4187 10.4407 4.10394 10.4407 3.71558V2.91248H13.5531V3.71558C13.5531 4.10394 13.8679 4.4187 14.2562 4.4187C14.6446 4.4187 14.9594 4.10394 14.9594 3.71558V2.91248H18.0718V3.71558C18.0718 4.10394 18.3867 4.4187 18.7749 4.4187C19.1633 4.4187 19.478 4.10394 19.478 3.71558V2.91248H20.2813C21.1393 2.91248 21.8375 3.61066 21.8375 4.46869V21.0375Z" fill="#140300"/>
<path d="M11.0555 10.8203H12.9382C13.2772 10.8203 13.5531 11.0962 13.5531 11.4351C13.5531 11.7742 13.2772 12.05 12.9382 12.05H10.4907C10.1023 12.05 9.78754 12.3647 9.78754 12.7531C9.78754 13.1415 10.1023 13.4562 10.4907 13.4562H11.2938V14.2593C11.2938 14.6477 11.6085 14.9625 11.9969 14.9625C12.3853 14.9625 12.7 14.6477 12.7 14.2593V13.4562H12.9382C14.0526 13.4562 14.9594 12.5495 14.9594 11.4351C14.9594 10.3207 14.0526 9.414 12.9382 9.414H11.0555C10.7164 9.414 10.4407 9.13824 10.4407 8.79932C10.4407 8.46021 10.7164 8.18445 11.0555 8.18445H13.5031C13.8915 8.18445 14.2062 7.86951 14.2062 7.48132C14.2062 7.09296 13.8915 6.7782 13.5031 6.7782H12.7V5.9751C12.7 5.58673 12.3853 5.27197 11.9969 5.27197C11.6085 5.27197 11.2938 5.58673 11.2938 5.9751V6.7782H11.0555C9.94098 6.7782 9.03442 7.68475 9.03442 8.79932C9.03442 9.9137 9.94098 10.8203 11.0555 10.8203Z" fill="#140300"/>
</svg>
