<svg width="24" height="24" viewBox="0 0 24 24" fill="none" xmlns="http://www.w3.org/2000/svg">
<path d="M11.8287 11.5609C13.417 11.5609 14.7921 10.9913 15.916 9.86735C17.0395 8.74364 17.6094 7.3687 17.6094 5.78026C17.6094 4.19237 17.0397 2.81726 15.9158 1.69317C14.7919 0.56964 13.4168 0 11.8287 0C10.2403 0 8.86535 0.56964 7.74163 1.69336C6.61792 2.81707 6.0481 4.19219 6.0481 5.78026C6.0481 7.3687 6.61792 8.74382 7.74163 9.86753C8.86572 10.9911 10.2408 11.5609 11.8287 11.5609ZM8.73626 2.6878C9.5985 1.82556 10.61 1.40643 11.8287 1.40643C13.0473 1.40643 14.0589 1.82556 14.9214 2.6878C15.7836 3.55023 16.2029 4.56188 16.2029 5.78026C16.2029 6.99901 15.7836 8.01048 14.9214 8.87291C14.0589 9.73533 13.0473 10.1545 11.8287 10.1545C10.6103 10.1545 9.59887 9.73515 8.73626 8.87291C7.87384 8.01067 7.45453 6.99901 7.45453 5.78026C7.45453 4.56188 7.87384 3.55023 8.73626 2.6878Z" fill="#140300"/>
<path d="M21.9435 18.4548C21.9111 17.9872 21.8455 17.477 21.749 16.9383C21.6516 16.3956 21.5262 15.8826 21.3761 15.4136C21.2208 14.9289 21.01 14.4503 20.7491 13.9916C20.4787 13.5156 20.1608 13.101 19.8041 12.7599C19.4311 12.403 18.9745 12.1161 18.4464 11.9068C17.9201 11.6986 17.3369 11.5931 16.7131 11.5931C16.4681 11.5931 16.2312 11.6937 15.7736 11.9916C15.492 12.1752 15.1626 12.3876 14.7949 12.6226C14.4805 12.8229 14.0546 13.0106 13.5285 13.1805C13.0153 13.3466 12.4942 13.4308 11.9797 13.4308C11.4655 13.4308 10.9444 13.3466 10.4308 13.1805C9.90526 13.0107 9.47917 12.8231 9.16533 12.6227C8.80113 12.39 8.47155 12.1776 8.18572 11.9914C7.7285 11.6935 7.49157 11.593 7.24657 11.593C6.62255 11.593 6.03954 11.6986 5.51348 11.907C4.98577 12.1159 4.52893 12.4028 4.15557 12.7601C3.79889 13.1014 3.48102 13.5157 3.21075 13.9916C2.95019 14.4503 2.73926 14.9288 2.58398 15.4138C2.43402 15.8827 2.30859 16.3956 2.21118 16.9383C2.1145 17.4763 2.04913 17.9866 2.01672 18.4554C1.98486 18.9137 1.96875 19.3907 1.96875 19.8726C1.96875 21.1254 2.367 22.1396 3.15234 22.8876C3.92797 23.6257 4.9541 24 6.20232 24H17.7585C19.0063 24 20.0324 23.6257 20.8083 22.8876C21.5938 22.1402 21.992 21.1256 21.992 19.8724C21.9918 19.3888 21.9755 18.9119 21.9435 18.4548ZM19.8385 21.8686C19.326 22.3564 18.6456 22.5935 17.7583 22.5935H6.20232C5.31481 22.5935 4.63439 22.3564 4.12207 21.8688C3.61944 21.3904 3.37518 20.7372 3.37518 19.8726C3.37518 19.4229 3.39001 18.9789 3.41967 18.5526C3.44861 18.1344 3.50775 17.675 3.59546 17.1868C3.68206 16.7047 3.79229 16.2522 3.9234 15.8426C4.04919 15.4499 4.22076 15.061 4.43353 14.6863C4.63659 14.3293 4.87023 14.0229 5.12805 13.7761C5.3692 13.5452 5.67315 13.3563 6.0313 13.2145C6.36254 13.0834 6.73479 13.0117 7.13891 13.0009C7.18816 13.027 7.27587 13.077 7.41796 13.1697C7.70708 13.3581 8.04033 13.5731 8.40874 13.8083C8.82402 14.0731 9.35906 14.3123 9.99828 14.5186C10.6518 14.7299 11.3183 14.8372 11.9798 14.8372C12.6414 14.8372 13.3081 14.7299 13.9612 14.5188C14.601 14.3121 15.1358 14.0731 15.5517 13.808C15.9287 13.567 16.2526 13.3583 16.5417 13.1697C16.6838 13.0772 16.7715 13.027 16.8208 13.0009C17.2251 13.0117 17.5973 13.0834 17.9287 13.2145C18.2867 13.3563 18.5907 13.5454 18.8318 13.7761C19.0896 14.0228 19.3233 14.3291 19.5263 14.6865C19.7393 15.061 19.911 15.4501 20.0366 15.8425C20.1679 16.2526 20.2783 16.7049 20.3648 17.1866C20.4523 17.6757 20.5116 18.1353 20.5406 18.5528V18.5531C20.5704 18.9778 20.5854 19.4216 20.5856 19.8726C20.5854 20.7374 20.3412 21.3904 19.8385 21.8686Z" fill="#140300"/>
</svg>
